<?xml version="1.0" encoding="UTF-8" standalone="no"?><svg xmlns="http://www.w3.org/2000/svg" xmlns:xlink="http://www.w3.org/1999/xlink" contentScriptType="application/ecmascript" contentStyleType="text/css" height="674.8px" preserveAspectRatio="none" style="width:956px;height:674px;" version="1.1" viewBox="0 0 956 674" width="956.9px" zoomAndPan="magnify"><defs><filter height="300%" id="fg704yjfmq4js" width="300%" x="-1" y="-1"><feGaussianBlur result="blurOut" stdDeviation="1.4"/><feColorMatrix in="blurOut" result="blurOut2" type="matrix" values="0 0 0 0 0 0 0 0 0 0 0 0 0 0 0 0 0 0 .4 0"/><feOffset dx="2.8" dy="2.8" in="blurOut2" result="blurOut3"/><feBlend in="SourceGraphic" in2="blurOut3" mode="normal"/></filter></defs><g><text fill="#000000" font-family="sans-serif" font-size="12.6" lengthAdjust="spacingAndGlyphs" textLength="150.5" x="398.993" y="13.0799">Mastermind Controler View</text><!--MD5=[a60570e4b426f702ccbb0d459e3b9417]
cluster models--><polygon fill="#FFFFFF" filter="url(#fg704yjfmq4js)" points="11.2,109.6484,51.1,109.6484,56,126.175,436.8,126.175,436.8,583.5484,11.2,583.5484,11.2,109.6484" style="stroke: #000000; stroke-width: 1.0499999999999998;"/><line style="stroke: #000000; stroke-width: 1.0499999999999998;" x1="11.2" x2="56" y1="126.175" y2="126.175"/><text fill="#000000" font-family="sans-serif" font-size="9.8" font-weight="bold" lengthAdjust="spacingAndGlyphs" textLength="35.7" x="14" y="121.2217">models</text><!--MD5=[3d2289c64ab922d4a1148c2b2950c1a6]
cluster views.console--><polygon fill="#FFFFFF" filter="url(#fg704yjfmq4js)" points="453.6,124.3484,528.5,124.3484,533.4,140.875,864.5,140.875,864.5,559.0484,453.6,559.0484,453.6,124.3484" style="stroke: #000000; stroke-width: 1.0499999999999998;"/><line style="stroke: #000000; stroke-width: 1.0499999999999998;" x1="453.6" x2="533.4" y1="140.875" y2="140.875"/><text fill="#000000" font-family="sans-serif" font-size="9.8" font-weight="bold" lengthAdjust="spacingAndGlyphs" textLength="70.7" x="456.4" y="135.9217">views.console</text><!--MD5=[c52f45833d539af9e29a9d34b8b7302b]
cluster utils--><polygon fill="#FFFFFF" filter="url(#fg704yjfmq4js)" points="863.8,600.3484,889,600.3484,893.9,616.875,917,616.875,917,670.3484,863.8,670.3484,863.8,600.3484" style="stroke: #000000; stroke-width: 1.0499999999999998;"/><line style="stroke: #000000; stroke-width: 1.0499999999999998;" x1="863.8" x2="893.9" y1="616.875" y2="616.875"/><text fill="#000000" font-family="sans-serif" font-size="9.8" font-weight="bold" lengthAdjust="spacingAndGlyphs" textLength="21" x="866.6" y="611.9217">utils</text><!--MD5=[1ea5cf3e691bb3552ec8d5f9a56af156]
class models.Game--><rect codeLine="66" fill="#FEFECE" filter="url(#fg704yjfmq4js)" height="111.0813" id="models.Game" style="stroke: #A80036; stroke-width: 1.0499999999999998;" width="107.1" x="318.15" y="134.8484"/><ellipse cx="356.825" cy="146.0484" fill="#ADD1B2" rx="7.7" ry="7.7" style="stroke: #A80036; stroke-width: 0.7;"/><path d="M358.225,143.5984 Q358.3672,143.2484 358.5313,143.0734 Q358.6953,142.8984 358.8812,142.8984 Q359.2094,142.8984 359.4172,143.0953 Q359.625,143.2922 359.625,143.7516 L359.625,144.8453 Q359.625,145.3047 359.4281,145.5016 Q359.2313,145.6984 358.925,145.6984 Q358.6516,145.6984 358.4766,145.5781 Q358.3016,145.4578 358.225,145.1406 Q358.1922,144.9219 358.0719,144.8016 Q357.8531,144.5719 357.4594,144.4406 Q357.0656,144.2984 356.6719,144.2984 Q356.1797,144.2984 355.7641,144.4953 Q355.3594,144.6922 355.0422,145.1297 Q354.725,145.5672 354.725,146.1688 L354.725,146.8141 Q354.725,147.5359 355.3156,148.0172 Q355.9063,148.4984 356.9562,148.4984 Q357.5797,148.4984 358.0172,148.3563 Q358.2687,148.2797 358.5531,148.0281 Q358.7391,147.8859 358.8375,147.8422 Q358.9359,147.7984 359.0563,147.7984 Q359.2859,147.7984 359.45,147.9844 Q359.625,148.1594 359.625,148.4109 Q359.625,148.6516 359.3844,148.9359 Q359.0344,149.3516 358.4766,149.5812 Q357.7438,149.8984 356.8469,149.8984 Q355.7969,149.8984 354.9547,149.4828 Q354.2766,149.1547 353.7953,148.4438 Q353.325,147.7328 353.325,146.8906 L353.325,146.125 Q353.325,145.25 353.7406,144.4844 Q354.1672,143.7188 354.9,143.3141 Q355.6437,142.8984 356.475,142.8984 Q356.9781,142.8984 357.4156,143.0734 Q357.8531,143.2484 358.225,143.5984 Z " fill="#000000"/><text fill="#000000" font-family="sans-serif" font-size="8.4" lengthAdjust="spacingAndGlyphs" textLength="23.8" x="371.175" y="149.4855">Game</text><line style="stroke: #A80036; stroke-width: 1.0499999999999998;" x1="318.85" x2="424.55" y1="157.2484" y2="157.2484"/><rect fill="none" height="4.2" style="stroke: #C82930; stroke-width: 0.7;" width="4.2" x="323.75" y="162.8484"/><text fill="#000000" font-family="sans-serif" font-size="7.7" lengthAdjust="spacingAndGlyphs" textLength="88.9" x="332.15" y="168.0417">attemptList : List&lt;Attempt&gt;</text><ellipse cx="325.85" cy="174.6336" fill="none" rx="2.1" ry="2.1" style="stroke: #038048; stroke-width: 0.7;"/><text fill="#000000" font-family="sans-serif" font-size="7.7" lengthAdjust="spacingAndGlyphs" textLength="58.8" x="332.15" y="177.7269">addAttempt : void</text><ellipse cx="325.85" cy="184.3188" fill="none" rx="2.1" ry="2.1" style="stroke: #038048; stroke-width: 0.7;"/><text fill="#000000" font-family="sans-serif" font-size="7.7" lengthAdjust="spacingAndGlyphs" textLength="77.7" x="332.15" y="187.412">getNumOfAttempts : int</text><ellipse cx="325.85" cy="194.0039" fill="none" rx="2.1" ry="2.1" style="stroke: #038048; stroke-width: 0.7;"/><text fill="#000000" font-family="sans-serif" font-size="7.7" lengthAdjust="spacingAndGlyphs" textLength="77" x="332.15" y="197.0972">getAttemptListSize : int</text><ellipse cx="325.85" cy="203.6891" fill="none" rx="2.1" ry="2.1" style="stroke: #038048; stroke-width: 0.7;"/><text fill="#000000" font-family="sans-serif" font-size="7.7" lengthAdjust="spacingAndGlyphs" textLength="66.5" x="332.15" y="206.7823">isFinished : boolean</text><ellipse cx="325.85" cy="213.3742" fill="none" rx="2.1" ry="2.1" style="stroke: #038048; stroke-width: 0.7;"/><text fill="#000000" font-family="sans-serif" font-size="7.7" lengthAdjust="spacingAndGlyphs" textLength="62.3" x="332.15" y="216.4675">isWinner : boolean</text><ellipse cx="325.85" cy="223.0594" fill="none" rx="2.1" ry="2.1" style="stroke: #038048; stroke-width: 0.7;"/><text fill="#000000" font-family="sans-serif" font-size="7.7" lengthAdjust="spacingAndGlyphs" textLength="62.3" x="332.15" y="226.1526">isLooser : boolean</text><ellipse cx="325.85" cy="232.7445" fill="none" rx="2.1" ry="2.1" style="stroke: #038048; stroke-width: 0.7;"/><text fill="#000000" font-family="sans-serif" font-size="7.7" lengthAdjust="spacingAndGlyphs" textLength="75.6" x="332.15" y="235.8378">resetAttemptList : void</text><line style="stroke: #A80036; stroke-width: 1.0499999999999998;" x1="318.85" x2="424.55" y1="240.3297" y2="240.3297"/><!--MD5=[58499357d4445bcc3ecc978ad55497c9]
class models.Color--><rect codeLine="55" fill="#FEFECE" filter="url(#fg704yjfmq4js)" height="120.7664" id="models.Color" style="stroke: #A80036; stroke-width: 1.0499999999999998;" width="147" x="22.4" y="451.2484"/><ellipse cx="82.425" cy="462.4484" fill="#EB937F" rx="7.7" ry="7.7" style="stroke: #A80036; stroke-width: 0.7;"/><path d="M81.375,463.1484 L81.375,464.5484 L84.175,464.5484 L84.175,463.8484 L84.175,463.5094 L84.6125,463.1484 L84.875,463.1484 L85.1375,463.1484 L85.575,463.5094 L85.575,463.8484 L85.575,465.9484 L79.975,465.9484 L79.6359,465.9484 L79.275,465.5109 L79.275,465.2484 L79.275,464.9859 L79.6359,464.5484 L79.975,464.5484 L79.975,464.5484 L79.975,460.3484 L79.975,460.3484 L79.6359,460.3484 L79.275,459.9109 L79.275,459.6484 L79.275,459.3859 L79.6359,458.9484 L79.975,458.9484 L85.575,458.9484 L85.575,461.0484 L85.575,461.3875 L85.1375,461.7484 L84.875,461.7484 L84.6125,461.7484 L84.175,461.3875 L84.175,461.0484 L84.175,460.3484 L81.375,460.3484 L81.375,461.7484 L82.075,461.7484 L82.075,461.4094 L82.075,461.4094 L82.5125,461.0484 L82.775,461.0484 L83.0375,461.0484 L83.475,461.4094 L83.475,461.7484 L83.475,463.1484 L83.475,463.4875 L83.0375,463.8484 L83.0375,463.8484 L82.775,463.8484 L82.5125,463.8484 L82.075,463.4875 L82.075,463.4875 L82.075,463.1484 L81.375,463.1484 Z " fill="#000000"/><text fill="#000000" font-family="sans-serif" font-size="8.4" lengthAdjust="spacingAndGlyphs" textLength="21" x="96.775" y="465.8855">Color</text><line style="stroke: #A80036; stroke-width: 1.0499999999999998;" x1="23.1" x2="168.7" y1="473.6484" y2="473.6484"/><text fill="#000000" font-family="sans-serif" font-size="7.7" lengthAdjust="spacingAndGlyphs" textLength="14" x="26.6" y="484.4417">RED</text><text fill="#000000" font-family="sans-serif" font-size="7.7" lengthAdjust="spacingAndGlyphs" textLength="18.2" x="26.6" y="494.1269">BLUE</text><text fill="#000000" font-family="sans-serif" font-size="7.7" lengthAdjust="spacingAndGlyphs" textLength="30.8" x="26.6" y="503.812">YELLOW</text><text fill="#000000" font-family="sans-serif" font-size="7.7" lengthAdjust="spacingAndGlyphs" textLength="30.8" x="26.6" y="513.4972">ORANGE</text><text fill="#000000" font-family="sans-serif" font-size="7.7" lengthAdjust="spacingAndGlyphs" textLength="15.4" x="26.6" y="523.1823">PINK</text><text fill="#000000" font-family="sans-serif" font-size="7.7" lengthAdjust="spacingAndGlyphs" textLength="23.8" x="26.6" y="532.8675">GREEN</text><line style="stroke: #A80036; stroke-width: 1.0499999999999998;" x1="23.1" x2="168.7" y1="537.3594" y2="537.3594"/><ellipse cx="30.1" cy="545.0594" fill="#84BE84" rx="2.1" ry="2.1" style="stroke: #038048; stroke-width: 0.7;"/><text fill="#000000" font-family="sans-serif" font-size="7.7" lengthAdjust="spacingAndGlyphs" textLength="49.7" x="36.4" y="548.1526">toChar() : char</text><ellipse cx="30.1" cy="554.7445" fill="#84BE84" rx="2.1" ry="2.1" style="stroke: #038048; stroke-width: 0.7;"/><text fill="#000000" font-family="sans-serif" font-size="7.7" lengthAdjust="spacingAndGlyphs" text-decoration="underline" textLength="106.4" x="36.4" y="557.8378">valueOf(char character) : Color</text><ellipse cx="30.1" cy="564.4297" fill="#84BE84" rx="2.1" ry="2.1" style="stroke: #038048; stroke-width: 0.7;"/><text fill="#000000" font-family="sans-serif" font-size="7.7" lengthAdjust="spacingAndGlyphs" text-decoration="underline" textLength="128.8" x="36.4" y="567.5229">isValidColor(char character) : boolean</text><!--MD5=[54d08704be622b91252e030e0f93b574]
class models.Attempt--><rect fill="#FEFECE" filter="url(#fg704yjfmq4js)" height="33.6" id="models.Attempt" style="stroke: #A80036; stroke-width: 1.0499999999999998;" width="51.1" x="346.15" y="331.8984"/><ellipse cx="356.65" cy="343.0984" fill="#ADD1B2" rx="7.7" ry="7.7" style="stroke: #A80036; stroke-width: 0.7;"/><path d="M358.05,340.6484 Q358.1922,340.2984 358.3563,340.1234 Q358.5203,339.9484 358.7062,339.9484 Q359.0344,339.9484 359.2422,340.1453 Q359.45,340.3422 359.45,340.8016 L359.45,341.8953 Q359.45,342.3547 359.2531,342.5516 Q359.0563,342.7484 358.75,342.7484 Q358.4766,342.7484 358.3016,342.6281 Q358.1266,342.5078 358.05,342.1906 Q358.0172,341.9719 357.8969,341.8516 Q357.6781,341.6219 357.2844,341.4906 Q356.8906,341.3484 356.4969,341.3484 Q356.0047,341.3484 355.5891,341.5453 Q355.1844,341.7422 354.8672,342.1797 Q354.55,342.6172 354.55,343.2188 L354.55,343.8641 Q354.55,344.5859 355.1406,345.0672 Q355.7313,345.5484 356.7813,345.5484 Q357.4047,345.5484 357.8422,345.4063 Q358.0938,345.3297 358.3781,345.0781 Q358.5641,344.9359 358.6625,344.8922 Q358.7609,344.8484 358.8812,344.8484 Q359.1109,344.8484 359.275,345.0344 Q359.45,345.2094 359.45,345.4609 Q359.45,345.7016 359.2094,345.9859 Q358.8594,346.4016 358.3016,346.6312 Q357.5687,346.9484 356.6719,346.9484 Q355.6219,346.9484 354.7797,346.5328 Q354.1016,346.2047 353.6203,345.4938 Q353.15,344.7828 353.15,343.9406 L353.15,343.175 Q353.15,342.3 353.5656,341.5344 Q353.9922,340.7687 354.725,340.3641 Q355.4688,339.9484 356.3,339.9484 Q356.8031,339.9484 357.2406,340.1234 Q357.6781,340.2984 358.05,340.6484 Z " fill="#000000"/><text fill="#000000" font-family="sans-serif" font-size="8.4" lengthAdjust="spacingAndGlyphs" textLength="28.7" x="366.45" y="346.5355">Attempt</text><line style="stroke: #A80036; stroke-width: 1.0499999999999998;" x1="346.85" x2="396.55" y1="354.2984" y2="354.2984"/><line style="stroke: #A80036; stroke-width: 1.0499999999999998;" x1="346.85" x2="396.55" y1="359.8984" y2="359.8984"/><!--MD5=[9d437554863e80ad96398a79d9b4582d]
class models.ProposedCombination--><rect fill="#FEFECE" filter="url(#fg704yjfmq4js)" height="33.6" id="models.ProposedCombination" style="stroke: #A80036; stroke-width: 1.0499999999999998;" width="109.9" x="194.25" y="494.9984"/><ellipse cx="204.75" cy="506.1984" fill="#ADD1B2" rx="7.7" ry="7.7" style="stroke: #A80036; stroke-width: 0.7;"/><path d="M206.15,503.7484 Q206.2922,503.3984 206.4562,503.2234 Q206.6203,503.0484 206.8062,503.0484 Q207.1344,503.0484 207.3422,503.2453 Q207.55,503.4422 207.55,503.9016 L207.55,504.9953 Q207.55,505.4547 207.3531,505.6516 Q207.1563,505.8484 206.85,505.8484 Q206.5766,505.8484 206.4016,505.7281 Q206.2266,505.6078 206.15,505.2906 Q206.1172,505.0719 205.9969,504.9516 Q205.7781,504.7219 205.3844,504.5906 Q204.9906,504.4484 204.5969,504.4484 Q204.1047,504.4484 203.6891,504.6453 Q203.2844,504.8422 202.9672,505.2797 Q202.65,505.7172 202.65,506.3187 L202.65,506.9641 Q202.65,507.6859 203.2406,508.1672 Q203.8312,508.6484 204.8813,508.6484 Q205.5047,508.6484 205.9422,508.5062 Q206.1938,508.4297 206.4781,508.1781 Q206.6641,508.0359 206.7625,507.9922 Q206.8609,507.9484 206.9813,507.9484 Q207.2109,507.9484 207.375,508.1344 Q207.55,508.3094 207.55,508.5609 Q207.55,508.8016 207.3094,509.0859 Q206.9594,509.5016 206.4016,509.7313 Q205.6688,510.0484 204.7719,510.0484 Q203.7219,510.0484 202.8797,509.6328 Q202.2016,509.3047 201.7203,508.5937 Q201.25,507.8828 201.25,507.0406 L201.25,506.275 Q201.25,505.4 201.6656,504.6344 Q202.0922,503.8688 202.825,503.4641 Q203.5688,503.0484 204.4,503.0484 Q204.9031,503.0484 205.3406,503.2234 Q205.7781,503.3984 206.15,503.7484 Z " fill="#000000"/><text fill="#000000" font-family="sans-serif" font-size="8.4" lengthAdjust="spacingAndGlyphs" textLength="87.5" x="214.55" y="509.6355">ProposedCombination</text><line style="stroke: #A80036; stroke-width: 1.0499999999999998;" x1="194.95" x2="303.45" y1="517.3984" y2="517.3984"/><line style="stroke: #A80036; stroke-width: 1.0499999999999998;" x1="194.95" x2="303.45" y1="522.9984" y2="522.9984"/><!--MD5=[b89ed330bc8394929f0ad94fa56293db]
class models.SecretCombination--><rect fill="#FEFECE" filter="url(#fg704yjfmq4js)" height="33.6" id="models.SecretCombination" style="stroke: #A80036; stroke-width: 1.0499999999999998;" width="96.6" x="329" y="494.9984"/><ellipse cx="339.5" cy="506.1984" fill="#ADD1B2" rx="7.7" ry="7.7" style="stroke: #A80036; stroke-width: 0.7;"/><path d="M340.9,503.7484 Q341.0422,503.3984 341.2062,503.2234 Q341.3703,503.0484 341.5563,503.0484 Q341.8844,503.0484 342.0922,503.2453 Q342.3,503.4422 342.3,503.9016 L342.3,504.9953 Q342.3,505.4547 342.1031,505.6516 Q341.9063,505.8484 341.6,505.8484 Q341.3266,505.8484 341.1516,505.7281 Q340.9766,505.6078 340.9,505.2906 Q340.8672,505.0719 340.7469,504.9516 Q340.5281,504.7219 340.1344,504.5906 Q339.7406,504.4484 339.3469,504.4484 Q338.8547,504.4484 338.4391,504.6453 Q338.0344,504.8422 337.7172,505.2797 Q337.4,505.7172 337.4,506.3187 L337.4,506.9641 Q337.4,507.6859 337.9906,508.1672 Q338.5812,508.6484 339.6312,508.6484 Q340.2547,508.6484 340.6922,508.5062 Q340.9437,508.4297 341.2281,508.1781 Q341.4141,508.0359 341.5125,507.9922 Q341.6109,507.9484 341.7313,507.9484 Q341.9609,507.9484 342.125,508.1344 Q342.3,508.3094 342.3,508.5609 Q342.3,508.8016 342.0594,509.0859 Q341.7094,509.5016 341.1516,509.7313 Q340.4188,510.0484 339.5219,510.0484 Q338.4719,510.0484 337.6297,509.6328 Q336.9516,509.3047 336.4703,508.5937 Q336,507.8828 336,507.0406 L336,506.275 Q336,505.4 336.4156,504.6344 Q336.8422,503.8688 337.575,503.4641 Q338.3187,503.0484 339.15,503.0484 Q339.6531,503.0484 340.0906,503.2234 Q340.5281,503.3984 340.9,503.7484 Z " fill="#000000"/><text fill="#000000" font-family="sans-serif" font-size="8.4" lengthAdjust="spacingAndGlyphs" textLength="74.2" x="349.3" y="509.6355">SecretCombination</text><line style="stroke: #A80036; stroke-width: 1.0499999999999998;" x1="329.7" x2="424.9" y1="517.3984" y2="517.3984"/><line style="stroke: #A80036; stroke-width: 1.0499999999999998;" x1="329.7" x2="424.9" y1="522.9984" y2="522.9984"/><!--MD5=[3ab7dea9c5f32da8266d9170b1b41dc7]
class models.Combination--><rect fill="#FEFECE" filter="url(#fg704yjfmq4js)" height="33.6" id="models.Combination" style="stroke: #A80036; stroke-width: 1.0499999999999998;" width="72.1" x="213.15" y="331.8984"/><ellipse cx="223.65" cy="343.0984" fill="#ADD1B2" rx="7.7" ry="7.7" style="stroke: #A80036; stroke-width: 0.7;"/><path d="M225.05,340.6484 Q225.1922,340.2984 225.3563,340.1234 Q225.5203,339.9484 225.7062,339.9484 Q226.0344,339.9484 226.2422,340.1453 Q226.45,340.3422 226.45,340.8016 L226.45,341.8953 Q226.45,342.3547 226.2531,342.5516 Q226.0562,342.7484 225.75,342.7484 Q225.4766,342.7484 225.3016,342.6281 Q225.1266,342.5078 225.05,342.1906 Q225.0172,341.9719 224.8969,341.8516 Q224.6781,341.6219 224.2844,341.4906 Q223.8906,341.3484 223.4969,341.3484 Q223.0047,341.3484 222.5891,341.5453 Q222.1844,341.7422 221.8672,342.1797 Q221.55,342.6172 221.55,343.2188 L221.55,343.8641 Q221.55,344.5859 222.1406,345.0672 Q222.7313,345.5484 223.7813,345.5484 Q224.4047,345.5484 224.8422,345.4063 Q225.0937,345.3297 225.3781,345.0781 Q225.5641,344.9359 225.6625,344.8922 Q225.7609,344.8484 225.8813,344.8484 Q226.1109,344.8484 226.275,345.0344 Q226.45,345.2094 226.45,345.4609 Q226.45,345.7016 226.2094,345.9859 Q225.8594,346.4016 225.3016,346.6312 Q224.5688,346.9484 223.6719,346.9484 Q222.6219,346.9484 221.7797,346.5328 Q221.1016,346.2047 220.6203,345.4938 Q220.15,344.7828 220.15,343.9406 L220.15,343.175 Q220.15,342.3 220.5656,341.5344 Q220.9922,340.7687 221.725,340.3641 Q222.4688,339.9484 223.3,339.9484 Q223.8031,339.9484 224.2406,340.1234 Q224.6781,340.2984 225.05,340.6484 Z " fill="#000000"/><text fill="#000000" font-family="sans-serif" font-size="8.4" lengthAdjust="spacingAndGlyphs" textLength="49.7" x="233.45" y="346.5355">Combination</text><line style="stroke: #A80036; stroke-width: 1.0499999999999998;" x1="213.85" x2="284.55" y1="354.2984" y2="354.2984"/><line style="stroke: #A80036; stroke-width: 1.0499999999999998;" x1="213.85" x2="284.55" y1="359.8984" y2="359.8984"/><!--MD5=[87c6da2cef8aef96d064630939ddcd88]
class views.console.View--><rect codeLine="14" fill="#FEFECE" filter="url(#fg704yjfmq4js)" height="82.0258" id="views.console.View" style="stroke: #A80036; stroke-width: 1.0499999999999998;" width="113.4" x="681.1" y="149.5484"/><ellipse cx="725.725" cy="160.7484" fill="#ADD1B2" rx="7.7" ry="7.7" style="stroke: #A80036; stroke-width: 0.7;"/><path d="M727.125,158.2984 Q727.2672,157.9484 727.4313,157.7734 Q727.5953,157.5984 727.7813,157.5984 Q728.1094,157.5984 728.3172,157.7953 Q728.525,157.9922 728.525,158.4516 L728.525,159.5453 Q728.525,160.0047 728.3281,160.2016 Q728.1312,160.3984 727.825,160.3984 Q727.5516,160.3984 727.3766,160.2781 Q727.2016,160.1578 727.125,159.8406 Q727.0922,159.6219 726.9719,159.5016 Q726.7531,159.2719 726.3594,159.1406 Q725.9656,158.9984 725.5719,158.9984 Q725.0797,158.9984 724.6641,159.1953 Q724.2594,159.3922 723.9422,159.8297 Q723.625,160.2672 723.625,160.8687 L723.625,161.5141 Q723.625,162.2359 724.2156,162.7172 Q724.8063,163.1984 725.8562,163.1984 Q726.4797,163.1984 726.9172,163.0562 Q727.1687,162.9797 727.4531,162.7281 Q727.6391,162.5859 727.7375,162.5422 Q727.8359,162.4984 727.9563,162.4984 Q728.1859,162.4984 728.35,162.6844 Q728.525,162.8594 728.525,163.1109 Q728.525,163.3516 728.2844,163.6359 Q727.9344,164.0516 727.3766,164.2813 Q726.6438,164.5984 725.7469,164.5984 Q724.6969,164.5984 723.8547,164.1828 Q723.1766,163.8547 722.6953,163.1437 Q722.225,162.4328 722.225,161.5906 L722.225,160.825 Q722.225,159.95 722.6406,159.1844 Q723.0672,158.4188 723.8,158.0141 Q724.5437,157.5984 725.375,157.5984 Q725.8781,157.5984 726.3156,157.7734 Q726.7531,157.9484 727.125,158.2984 Z " fill="#000000"/><text fill="#000000" font-family="sans-serif" font-size="8.4" lengthAdjust="spacingAndGlyphs" textLength="18.2" x="740.075" y="164.1855">View</text><line style="stroke: #A80036; stroke-width: 1.0499999999999998;" x1="681.8" x2="793.8" y1="171.9484" y2="171.9484"/><rect fill="none" height="4.2" style="stroke: #C82930; stroke-width: 0.7;" width="4.2" x="686.7" y="177.5484"/><text fill="#000000" font-family="sans-serif" font-size="7.7" lengthAdjust="spacingAndGlyphs" textLength="80.5" x="695.1" y="182.7417">gameView : GameView</text><rect fill="none" height="4.2" style="stroke: #C82930; stroke-width: 0.7;" width="4.2" x="686.7" y="187.2336"/><text fill="#000000" font-family="sans-serif" font-size="7.7" lengthAdjust="spacingAndGlyphs" textLength="95.2" x="695.1" y="192.4269">resumeView : ResumeView</text><rect fill="none" height="4.2" style="stroke: #C82930; stroke-width: 0.7;" width="4.2" x="686.7" y="196.9188"/><text fill="#000000" font-family="sans-serif" font-size="7.7" lengthAdjust="spacingAndGlyphs" textLength="44.1" x="695.1" y="202.112">game : Game</text><rect fill="none" height="4.2" style="stroke: #C82930; stroke-width: 0.7;" width="4.2" x="686.7" y="206.6039"/><text fill="#000000" font-family="sans-serif" font-size="7.7" lengthAdjust="spacingAndGlyphs" textLength="37.8" x="695.1" y="211.7972">reset : void</text><ellipse cx="688.8" cy="218.3891" fill="none" rx="2.1" ry="2.1" style="stroke: #038048; stroke-width: 0.7;"/><text fill="#000000" font-family="sans-serif" font-size="7.7" lengthAdjust="spacingAndGlyphs" textLength="45.5" x="695.1" y="221.4823">interact : void</text><line style="stroke: #A80036; stroke-width: 1.0499999999999998;" x1="681.8" x2="793.8" y1="225.9742" y2="225.9742"/><!--MD5=[9f4dc69b0b544243f394be7db57a7790]
class views.console.GameView--><rect codeLine="22" fill="#FEFECE" filter="url(#fg704yjfmq4js)" height="120.7664" id="views.console.GameView" style="stroke: #A80036; stroke-width: 1.0499999999999998;" width="149.8" x="604.8" y="288.1484"/><ellipse cx="655.725" cy="299.3484" fill="#ADD1B2" rx="7.7" ry="7.7" style="stroke: #A80036; stroke-width: 0.7;"/><path d="M657.125,296.8984 Q657.2672,296.5484 657.4313,296.3734 Q657.5953,296.1984 657.7813,296.1984 Q658.1094,296.1984 658.3172,296.3953 Q658.525,296.5922 658.525,297.0516 L658.525,298.1453 Q658.525,298.6047 658.3281,298.8016 Q658.1312,298.9984 657.825,298.9984 Q657.5516,298.9984 657.3766,298.8781 Q657.2016,298.7578 657.125,298.4406 Q657.0922,298.2219 656.9719,298.1016 Q656.7531,297.8719 656.3594,297.7406 Q655.9656,297.5984 655.5719,297.5984 Q655.0797,297.5984 654.6641,297.7953 Q654.2594,297.9922 653.9422,298.4297 Q653.625,298.8672 653.625,299.4688 L653.625,300.1141 Q653.625,300.8359 654.2156,301.3172 Q654.8063,301.7984 655.8562,301.7984 Q656.4797,301.7984 656.9172,301.6563 Q657.1687,301.5797 657.4531,301.3281 Q657.6391,301.1859 657.7375,301.1422 Q657.8359,301.0984 657.9563,301.0984 Q658.1859,301.0984 658.35,301.2844 Q658.525,301.4594 658.525,301.7109 Q658.525,301.9516 658.2844,302.2359 Q657.9344,302.6516 657.3766,302.8812 Q656.6438,303.1984 655.7469,303.1984 Q654.6969,303.1984 653.8547,302.7828 Q653.1766,302.4547 652.6953,301.7438 Q652.225,301.0328 652.225,300.1906 L652.225,299.425 Q652.225,298.55 652.6406,297.7844 Q653.0672,297.0187 653.8,296.6141 Q654.5437,296.1984 655.375,296.1984 Q655.8781,296.1984 656.3156,296.3734 Q656.7531,296.5484 657.125,296.8984 Z " fill="#000000"/><text fill="#000000" font-family="sans-serif" font-size="8.4" lengthAdjust="spacingAndGlyphs" textLength="42" x="670.075" y="302.7855">GameView</text><line style="stroke: #A80036; stroke-width: 1.0499999999999998;" x1="605.5" x2="753.9" y1="310.5484" y2="310.5484"/><rect fill="none" height="4.2" style="stroke: #C82930; stroke-width: 0.7;" width="4.2" x="610.4" y="316.1484"/><text fill="#000000" font-family="sans-serif" font-size="7.7" lengthAdjust="spacingAndGlyphs" textLength="44.1" x="618.8" y="321.3417">game : Game</text><rect fill="none" height="4.2" style="stroke: #C82930; stroke-width: 0.7;" width="4.2" x="610.4" y="325.8336"/><text fill="#000000" font-family="sans-serif" font-size="7.7" lengthAdjust="spacingAndGlyphs" textLength="93.1" x="618.8" y="331.0269">attemptView : AttemptView</text><rect fill="none" height="4.2" style="stroke: #C82930; stroke-width: 0.7;" width="4.2" x="610.4" y="335.5187"/><text fill="#000000" font-family="sans-serif" font-size="7.7" lengthAdjust="spacingAndGlyphs" textLength="131.6" x="618.8" y="340.712">secretCombination : SecretCombination</text><rect fill="none" height="4.2" style="stroke: #C82930; stroke-width: 0.7;" width="4.2" x="610.4" y="345.2039"/><text fill="#000000" font-family="sans-serif" font-size="7.7" lengthAdjust="spacingAndGlyphs" textLength="100.8" x="618.8" y="350.3972">writeSecretCombination : void</text><line style="stroke: #A80036; stroke-width: 1.0499999999999998;" x1="605.5" x2="753.9" y1="354.8891" y2="354.8891"/><ellipse cx="612.5" cy="362.5891" fill="#84BE84" rx="2.1" ry="2.1" style="stroke: #038048; stroke-width: 0.7;"/><text fill="#000000" font-family="sans-serif" font-size="7.7" lengthAdjust="spacingAndGlyphs" textLength="51.1" x="618.8" y="365.6823">interact() : void</text><rect fill="#F24D5C" height="4.2" style="stroke: #C82930; stroke-width: 0.7;" width="4.2" x="610.4" y="370.1742"/><text fill="#000000" font-family="sans-serif" font-size="7.7" lengthAdjust="spacingAndGlyphs" textLength="96.6" x="618.8" y="375.3675">writeNumOfAttempts() : void</text><rect fill="#F24D5C" height="4.2" style="stroke: #C82930; stroke-width: 0.7;" width="4.2" x="610.4" y="379.8594"/><text fill="#000000" font-family="sans-serif" font-size="7.7" lengthAdjust="spacingAndGlyphs" textLength="64.4" x="618.8" y="385.0526">addAttempt() : void</text><rect fill="#F24D5C" height="4.2" style="stroke: #C82930; stroke-width: 0.7;" width="4.2" x="610.4" y="389.5445"/><text fill="#000000" font-family="sans-serif" font-size="7.7" lengthAdjust="spacingAndGlyphs" textLength="73.5" x="618.8" y="394.7378">writeAttempts() : void</text><ellipse cx="612.5" cy="401.3297" fill="#84BE84" rx="2.1" ry="2.1" style="stroke: #038048; stroke-width: 0.7;"/><text fill="#000000" font-family="sans-serif" font-size="7.7" lengthAdjust="spacingAndGlyphs" textLength="64.4" x="618.8" y="404.4229">writeResult() : void</text><!--MD5=[2f151284475d868f7c44c9f582652dcd]
class views.console.ResumeView--><rect codeLine="33" fill="#FEFECE" filter="url(#fg704yjfmq4js)" height="43.2852" id="views.console.ResumeView" style="stroke: #A80036; stroke-width: 1.0499999999999998;" width="74.2" x="779.1" y="326.9984"/><ellipse cx="789.6" cy="338.1984" fill="#ADD1B2" rx="7.7" ry="7.7" style="stroke: #A80036; stroke-width: 0.7;"/><path d="M791,335.7484 Q791.1422,335.3984 791.3063,335.2234 Q791.4703,335.0484 791.6563,335.0484 Q791.9844,335.0484 792.1922,335.2453 Q792.4,335.4422 792.4,335.9016 L792.4,336.9953 Q792.4,337.4547 792.2031,337.6516 Q792.0062,337.8484 791.7,337.8484 Q791.4266,337.8484 791.2516,337.7281 Q791.0766,337.6078 791,337.2906 Q790.9672,337.0719 790.8469,336.9516 Q790.6281,336.7219 790.2344,336.5906 Q789.8406,336.4484 789.4469,336.4484 Q788.9547,336.4484 788.5391,336.6453 Q788.1344,336.8422 787.8172,337.2797 Q787.5,337.7172 787.5,338.3187 L787.5,338.9641 Q787.5,339.6859 788.0906,340.1672 Q788.6813,340.6484 789.7312,340.6484 Q790.3547,340.6484 790.7922,340.5062 Q791.0437,340.4297 791.3281,340.1781 Q791.5141,340.0359 791.6125,339.9922 Q791.7109,339.9484 791.8313,339.9484 Q792.0609,339.9484 792.225,340.1344 Q792.4,340.3094 792.4,340.5609 Q792.4,340.8016 792.1594,341.0859 Q791.8094,341.5016 791.2516,341.7313 Q790.5188,342.0484 789.6219,342.0484 Q788.5719,342.0484 787.7297,341.6328 Q787.0516,341.3047 786.5703,340.5938 Q786.1,339.8828 786.1,339.0406 L786.1,338.275 Q786.1,337.4 786.5156,336.6344 Q786.9422,335.8688 787.675,335.4641 Q788.4187,335.0484 789.25,335.0484 Q789.7531,335.0484 790.1906,335.2234 Q790.6281,335.3984 791,335.7484 Z " fill="#000000"/><text fill="#000000" font-family="sans-serif" font-size="8.4" lengthAdjust="spacingAndGlyphs" textLength="51.8" x="799.4" y="341.6355">ResumeView</text><line style="stroke: #A80036; stroke-width: 1.0499999999999998;" x1="779.8" x2="852.6" y1="349.3984" y2="349.3984"/><line style="stroke: #A80036; stroke-width: 1.0499999999999998;" x1="779.8" x2="852.6" y1="354.9984" y2="354.9984"/><ellipse cx="786.8" cy="362.6984" fill="#84BE84" rx="2.1" ry="2.1" style="stroke: #038048; stroke-width: 0.7;"/><text fill="#000000" font-family="sans-serif" font-size="7.7" lengthAdjust="spacingAndGlyphs" textLength="51.1" x="793.1" y="365.7917">interact() : void</text><!--MD5=[937bc8db9504e57eafe08f070c3ff59c]
class views.console.AttemptView--><rect codeLine="36" fill="#FEFECE" filter="url(#fg704yjfmq4js)" height="72.3406" id="views.console.AttemptView" style="stroke: #A80036; stroke-width: 1.0499999999999998;" width="196.7" x="465.15" y="475.7484"/><ellipse cx="537.075" cy="486.9484" fill="#ADD1B2" rx="7.7" ry="7.7" style="stroke: #A80036; stroke-width: 0.7;"/><path d="M538.475,484.4984 Q538.6172,484.1484 538.7813,483.9734 Q538.9453,483.7984 539.1312,483.7984 Q539.4594,483.7984 539.6672,483.9953 Q539.875,484.1922 539.875,484.6516 L539.875,485.7453 Q539.875,486.2047 539.6781,486.4016 Q539.4812,486.5984 539.175,486.5984 Q538.9016,486.5984 538.7266,486.4781 Q538.5516,486.3578 538.475,486.0406 Q538.4422,485.8219 538.3219,485.7016 Q538.1031,485.4719 537.7094,485.3406 Q537.3156,485.1984 536.9219,485.1984 Q536.4297,485.1984 536.0141,485.3953 Q535.6094,485.5922 535.2922,486.0297 Q534.975,486.4672 534.975,487.0687 L534.975,487.7141 Q534.975,488.4359 535.5656,488.9172 Q536.1563,489.3984 537.2063,489.3984 Q537.8297,489.3984 538.2672,489.2562 Q538.5188,489.1797 538.8031,488.9281 Q538.9891,488.7859 539.0875,488.7422 Q539.1859,488.6984 539.3063,488.6984 Q539.5359,488.6984 539.7,488.8844 Q539.875,489.0594 539.875,489.3109 Q539.875,489.5516 539.6344,489.8359 Q539.2844,490.2516 538.7266,490.4813 Q537.9938,490.7984 537.0969,490.7984 Q536.0469,490.7984 535.2047,490.3828 Q534.5266,490.0547 534.0453,489.3437 Q533.575,488.6328 533.575,487.7906 L533.575,487.025 Q533.575,486.15 533.9906,485.3844 Q534.4172,484.6188 535.15,484.2141 Q535.8938,483.7984 536.725,483.7984 Q537.2281,483.7984 537.6656,483.9734 Q538.1031,484.1484 538.475,484.4984 Z " fill="#000000"/><text fill="#000000" font-family="sans-serif" font-size="8.4" lengthAdjust="spacingAndGlyphs" textLength="46.9" x="551.425" y="490.3855">AttemptView</text><line style="stroke: #A80036; stroke-width: 1.0499999999999998;" x1="465.85" x2="661.15" y1="498.1484" y2="498.1484"/><rect fill="none" height="4.2" style="stroke: #C82930; stroke-width: 0.7;" width="4.2" x="470.75" y="503.7484"/><text fill="#000000" font-family="sans-serif" font-size="7.7" lengthAdjust="spacingAndGlyphs" textLength="44.1" x="479.15" y="508.9417">game : Game</text><line style="stroke: #A80036; stroke-width: 1.0499999999999998;" x1="465.85" x2="661.15" y1="513.4336" y2="513.4336"/><ellipse cx="472.85" cy="521.1336" fill="#84BE84" rx="2.1" ry="2.1" style="stroke: #038048; stroke-width: 0.7;"/><text fill="#000000" font-family="sans-serif" font-size="7.7" lengthAdjust="spacingAndGlyphs" textLength="87.5" x="479.15" y="524.2269">writeln(int attempts) : void</text><ellipse cx="472.85" cy="530.8188" fill="#84BE84" rx="2.1" ry="2.1" style="stroke: #038048; stroke-width: 0.7;"/><text fill="#000000" font-family="sans-serif" font-size="7.7" lengthAdjust="spacingAndGlyphs" textLength="178.5" x="479.15" y="533.912">interact(SecretCombination secretCombination) : void</text><ellipse cx="472.85" cy="540.5039" fill="#84BE84" rx="2.1" ry="2.1" style="stroke: #038048; stroke-width: 0.7;"/><text fill="#000000" font-family="sans-serif" font-size="7.7" lengthAdjust="spacingAndGlyphs" text-decoration="underline" textLength="131.6" x="479.15" y="543.5972">writeColors(Attempt addAttempt) : void</text><!--MD5=[52f795c826f81af7fbdfc10d6f76edf3]
class views.console.SecretCombinationView--><rect codeLine="42" fill="#FEFECE" filter="url(#fg704yjfmq4js)" height="72.3406" id="views.console.SecretCombinationView" style="stroke: #A80036; stroke-width: 1.0499999999999998;" width="166.6" x="686.7" y="475.7484"/><ellipse cx="720.825" cy="486.9484" fill="#ADD1B2" rx="7.7" ry="7.7" style="stroke: #A80036; stroke-width: 0.7;"/><path d="M722.225,484.4984 Q722.3672,484.1484 722.5313,483.9734 Q722.6953,483.7984 722.8812,483.7984 Q723.2094,483.7984 723.4172,483.9953 Q723.625,484.1922 723.625,484.6516 L723.625,485.7453 Q723.625,486.2047 723.4281,486.4016 Q723.2312,486.5984 722.925,486.5984 Q722.6516,486.5984 722.4766,486.4781 Q722.3016,486.3578 722.225,486.0406 Q722.1922,485.8219 722.0719,485.7016 Q721.8531,485.4719 721.4594,485.3406 Q721.0656,485.1984 720.6719,485.1984 Q720.1797,485.1984 719.7641,485.3953 Q719.3594,485.5922 719.0422,486.0297 Q718.725,486.4672 718.725,487.0687 L718.725,487.7141 Q718.725,488.4359 719.3156,488.9172 Q719.9063,489.3984 720.9563,489.3984 Q721.5797,489.3984 722.0172,489.2562 Q722.2688,489.1797 722.5531,488.9281 Q722.7391,488.7859 722.8375,488.7422 Q722.9359,488.6984 723.0563,488.6984 Q723.2859,488.6984 723.45,488.8844 Q723.625,489.0594 723.625,489.3109 Q723.625,489.5516 723.3844,489.8359 Q723.0344,490.2516 722.4766,490.4813 Q721.7438,490.7984 720.8469,490.7984 Q719.7969,490.7984 718.9547,490.3828 Q718.2766,490.0547 717.7953,489.3437 Q717.325,488.6328 717.325,487.7906 L717.325,487.025 Q717.325,486.15 717.7406,485.3844 Q718.1672,484.6188 718.9,484.2141 Q719.6438,483.7984 720.475,483.7984 Q720.9781,483.7984 721.4156,483.9734 Q721.8531,484.1484 722.225,484.4984 Z " fill="#000000"/><text fill="#000000" font-family="sans-serif" font-size="8.4" lengthAdjust="spacingAndGlyphs" textLength="92.4" x="735.175" y="490.3855">SecretCombinationView</text><line style="stroke: #A80036; stroke-width: 1.0499999999999998;" x1="687.4" x2="852.6" y1="498.1484" y2="498.1484"/><rect fill="none" height="4.2" style="stroke: #C82930; stroke-width: 0.7;" width="4.2" x="692.3" y="503.7484"/><text fill="#000000" font-family="sans-serif" font-size="7.7" lengthAdjust="spacingAndGlyphs" textLength="131.6" x="700.7" y="508.9417">secretCombination : SecretCombination</text><line style="stroke: #A80036; stroke-width: 1.0499999999999998;" x1="687.4" x2="852.6" y1="513.4336" y2="513.4336"/><ellipse cx="694.4" cy="521.1336" fill="#84BE84" rx="2.1" ry="2.1" style="stroke: #038048; stroke-width: 0.7;"/><text fill="#000000" font-family="sans-serif" font-size="7.7" lengthAdjust="spacingAndGlyphs" textLength="49" x="700.7" y="524.2269">writeln() : void</text><ellipse cx="694.4" cy="530.8188" fill="#84BE84" rx="2.1" ry="2.1" style="stroke: #038048; stroke-width: 0.7;"/><text fill="#000000" font-family="sans-serif" font-size="7.7" lengthAdjust="spacingAndGlyphs" textLength="148.4" x="700.7" y="533.912">getSecretCombination() : SecretCombination</text><rect fill="#F24D5C" height="4.2" style="stroke: #C82930; stroke-width: 0.7;" width="4.2" x="692.3" y="538.4039"/><text fill="#000000" font-family="sans-serif" font-size="7.7" lengthAdjust="spacingAndGlyphs" textLength="65.1" x="700.7" y="543.5972">writeColors() : void</text><!--MD5=[fb0fbda9cd49758390b6a4db09b8b088]
class utils.IO--><rect fill="#FEFECE" filter="url(#fg704yjfmq4js)" height="33.6" id="utils.IO" style="stroke: #A80036; stroke-width: 1.0499999999999998;" width="30.8" x="875" y="625.5484"/><ellipse cx="885.5" cy="636.7484" fill="#ADD1B2" rx="7.7" ry="7.7" style="stroke: #A80036; stroke-width: 0.7;"/><path d="M886.9,634.2984 Q887.0422,633.9484 887.2063,633.7734 Q887.3703,633.5984 887.5563,633.5984 Q887.8844,633.5984 888.0922,633.7953 Q888.3,633.9922 888.3,634.4516 L888.3,635.5453 Q888.3,636.0047 888.1031,636.2016 Q887.9063,636.3984 887.6,636.3984 Q887.3266,636.3984 887.1516,636.2781 Q886.9766,636.1578 886.9,635.8406 Q886.8672,635.6219 886.7469,635.5016 Q886.5281,635.2719 886.1344,635.1406 Q885.7406,634.9984 885.3469,634.9984 Q884.8547,634.9984 884.4391,635.1953 Q884.0344,635.3922 883.7172,635.8297 Q883.4,636.2672 883.4,636.8688 L883.4,637.5141 Q883.4,638.2359 883.9906,638.7172 Q884.5813,639.1984 885.6312,639.1984 Q886.2547,639.1984 886.6922,639.0563 Q886.9437,638.9797 887.2281,638.7281 Q887.4141,638.5859 887.5125,638.5422 Q887.6109,638.4984 887.7312,638.4984 Q887.9609,638.4984 888.125,638.6844 Q888.3,638.8594 888.3,639.1109 Q888.3,639.3516 888.0594,639.6359 Q887.7094,640.0516 887.1516,640.2813 Q886.4187,640.5984 885.5219,640.5984 Q884.4719,640.5984 883.6297,640.1828 Q882.9516,639.8547 882.4703,639.1438 Q882,638.4328 882,637.5906 L882,636.825 Q882,635.95 882.4156,635.1844 Q882.8422,634.4187 883.575,634.0141 Q884.3187,633.5984 885.15,633.5984 Q885.6531,633.5984 886.0906,633.7734 Q886.5281,633.9484 886.9,634.2984 Z " fill="#000000"/><text fill="#000000" font-family="sans-serif" font-size="8.4" lengthAdjust="spacingAndGlyphs" textLength="8.4" x="895.3" y="640.1855">IO</text><line style="stroke: #A80036; stroke-width: 1.0499999999999998;" x1="875.7" x2="905.1" y1="647.9484" y2="647.9484"/><line style="stroke: #A80036; stroke-width: 1.0499999999999998;" x1="875.7" x2="905.1" y1="653.5484" y2="653.5484"/><!--MD5=[7283a9eed84464550b6d5ebf39c68b05]
class Mastermind--><rect codeLine="4" fill="#FEFECE" filter="url(#fg704yjfmq4js)" height="72.3406" id="Mastermind" style="stroke: #A80036; stroke-width: 1.0499999999999998;" width="67.9" x="491.75" y="20.7484"/><ellipse cx="502.25" cy="31.9484" fill="#ADD1B2" rx="7.7" ry="7.7" style="stroke: #A80036; stroke-width: 0.7;"/><path d="M503.65,29.4984 Q503.7922,29.1484 503.9562,28.9734 Q504.1203,28.7984 504.3063,28.7984 Q504.6344,28.7984 504.8422,28.9953 Q505.05,29.1922 505.05,29.6516 L505.05,30.7453 Q505.05,31.2047 504.8531,31.4016 Q504.6562,31.5984 504.35,31.5984 Q504.0766,31.5984 503.9016,31.4781 Q503.7266,31.3578 503.65,31.0406 Q503.6172,30.8219 503.4969,30.7016 Q503.2781,30.4719 502.8844,30.3406 Q502.4906,30.1984 502.0969,30.1984 Q501.6047,30.1984 501.1891,30.3953 Q500.7844,30.5922 500.4672,31.0297 Q500.15,31.4672 500.15,32.0688 L500.15,32.7141 Q500.15,33.4359 500.7406,33.9172 Q501.3312,34.3984 502.3812,34.3984 Q503.0047,34.3984 503.4422,34.2562 Q503.6937,34.1797 503.9781,33.9281 Q504.1641,33.7859 504.2625,33.7422 Q504.3609,33.6984 504.4813,33.6984 Q504.7109,33.6984 504.875,33.8844 Q505.05,34.0594 505.05,34.3109 Q505.05,34.5516 504.8094,34.8359 Q504.4594,35.2516 503.9016,35.4812 Q503.1688,35.7984 502.2719,35.7984 Q501.2219,35.7984 500.3797,35.3828 Q499.7016,35.0547 499.2203,34.3438 Q498.75,33.6328 498.75,32.7906 L498.75,32.025 Q498.75,31.15 499.1656,30.3844 Q499.5922,29.6188 500.325,29.2141 Q501.0687,28.7984 501.9,28.7984 Q502.4031,28.7984 502.8406,28.9734 Q503.2781,29.1484 503.65,29.4984 Z " fill="#000000"/><text fill="#000000" font-family="sans-serif" font-size="8.4" lengthAdjust="spacingAndGlyphs" textLength="45.5" x="512.05" y="35.3855">Mastermind</text><line style="stroke: #A80036; stroke-width: 1.0499999999999998;" x1="492.45" x2="558.95" y1="43.1484" y2="43.1484"/><rect fill="none" height="4.2" style="stroke: #C82930; stroke-width: 0.7;" width="4.2" x="497.35" y="48.7484"/><text fill="#000000" font-family="sans-serif" font-size="7.7" lengthAdjust="spacingAndGlyphs" textLength="44.1" x="505.75" y="53.9417">game : Game</text><rect fill="none" height="4.2" style="stroke: #C82930; stroke-width: 0.7;" width="4.2" x="497.35" y="58.4336"/><text fill="#000000" font-family="sans-serif" font-size="7.7" lengthAdjust="spacingAndGlyphs" textLength="41.3" x="505.75" y="63.6269">view : View</text><text fill="#000000" font-family="sans-serif" font-size="7.7" lengthAdjust="spacingAndGlyphs" text-decoration="underline" textLength="33.6" x="505.75" y="73.312">main :void</text><line style="stroke: #A80036; stroke-width: 1.0499999999999998;" x1="492.45" x2="558.95" y1="77.8039" y2="77.8039"/><ellipse cx="499.45" cy="85.5039" fill="#84BE84" rx="2.1" ry="2.1" style="stroke: #038048; stroke-width: 0.7;"/><text fill="#000000" font-family="sans-serif" font-size="7.7" lengthAdjust="spacingAndGlyphs" textLength="39.9" x="505.75" y="88.5972">play() : void</text><!--MD5=[ec10c6fa548180ead98b9cfd5ce69544]
link Mastermind to models.Game--><path codeLine="11" d="M484.632,81.6562 C484.632,81.6562 462.98,96.2924 453.6,104.0484 C444.626,111.4684 435.617,119.7984 427.028,128.2754 " fill="none" id="Mastermind-models.Game" style="stroke: #A80036; stroke-width: 0.7;"/><polygon fill="#A80036" points="420.546,134.7714,426.9768,132.2866,423.017,132.2927,423.0109,128.3329,420.546,134.7714" style="stroke: #A80036; stroke-width: 0.7;"/><line style="stroke: #A80036; stroke-width: 0.7;" x1="423.017" x2="426.972" y1="132.2927" y2="128.3244"/><polygon fill="#A80036" points="491.715,77.1404,486.6683,77.0373,484.632,81.6562,489.6788,81.7593,491.715,77.1404" style="stroke: #A80036; stroke-width: 0.7;"/><!--MD5=[c7c5ae93d142e7ddef58bf9dab084cce]
link Mastermind to views.console.View--><path codeLine="12" d="M566.9013,83.2061 C566.9013,83.2061 638.834,128.0654 673.162,149.4784 " fill="none" id="Mastermind-views.console.View" style="stroke: #A80036; stroke-width: 0.7;"/><polygon fill="#A80036" points="681.051,154.3994,677.1899,148.6878,678.0821,152.5458,674.2242,153.438,681.051,154.3994" style="stroke: #A80036; stroke-width: 0.7;"/><line style="stroke: #A80036; stroke-width: 0.7;" x1="678.0821" x2="673.33" y1="152.5458" y2="149.5834"/><polygon fill="#A80036" points="559.776,78.7574,561.8557,83.3569,566.9013,83.2061,564.8215,78.6067,559.776,78.7574" style="stroke: #A80036; stroke-width: 0.7;"/><!--MD5=[b20b959a516d524aa5a3fb6e7f7f4fd1]
link views.console.View to views.console.GameView--><path codeLine="48" d="M719.9179,239.4564 C719.9179,239.4564 710.017,266.1894 705.138,279.3494 " fill="none" id="views.console.View-views.console.GameView" style="stroke: #A80036; stroke-width: 0.7;"/><polygon fill="#A80036" points="701.953,287.9314,706.7653,282.9946,703.1676,284.6489,701.5133,281.0513,701.953,287.9314" style="stroke: #A80036; stroke-width: 0.7;"/><line style="stroke: #A80036; stroke-width: 0.7;" x1="703.1676" x2="705.117" y1="284.6489" y2="279.3984"/><polygon fill="#A80036" points="722.841,231.5814,718.7544,234.5445,719.9179,239.4564,724.0044,236.4933,722.841,231.5814" style="stroke: #A80036; stroke-width: 0.7;"/><!--MD5=[87f78d92648bcb3054d13c8f8a374791]
link views.console.View to views.console.ResumeView--><path codeLine="49" d="M757.988,231.5814 C772.576,260.7574 791.805,299.2084 804.083,323.7714 " fill="none" id="views.console.View-to-views.console.ResumeView" style="stroke: #A80036; stroke-width: 0.7; stroke-dasharray: 7.0,7.0;"/><polygon fill="#A80036" points="805.7,326.9914,805.3958,320.104,804.1388,323.8589,800.3838,322.6019,805.7,326.9914" style="stroke: #A80036; stroke-width: 0.7;"/><!--MD5=[6e1613315990f2ca1f3a506a063b27d9]
link views.console.GameView to views.console.AttemptView--><path codeLine="50" d="M631.6924,416.2031 C631.6924,416.2031 605.633,452.4734 594.363,468.1534 " fill="none" id="views.console.GameView-views.console.AttemptView" style="stroke: #A80036; stroke-width: 0.7;"/><polygon fill="#A80036" points="588.987,475.6364,594.9371,472.1541,591.0293,472.7941,590.3893,468.8864,588.987,475.6364" style="stroke: #A80036; stroke-width: 0.7;"/><line style="stroke: #A80036; stroke-width: 0.7;" x1="591.0293" x2="594.2965" y1="472.7941" y2="468.2479"/><polygon fill="#FFFFFF" points="636.594,409.3814,631.8693,411.1584,631.6924,416.2031,636.4171,414.4261,636.594,409.3814" style="stroke: #A80036; stroke-width: 0.7;"/><!--MD5=[dd513d09b716009f5ca464e3278bbb9d]
link views.console.GameView to views.console.SecretCombinationView--><path codeLine="51" d="M717.2948,416.713 C717.2948,416.713 737.107,452.1934 745.696,467.5794 " fill="none" id="views.console.GameView-views.console.SecretCombinationView" style="stroke: #A80036; stroke-width: 0.7;"/><polygon fill="#A80036" points="750.197,475.6364,749.566,468.7712,748.4888,472.5816,744.6783,471.5044,750.197,475.6364" style="stroke: #A80036; stroke-width: 0.7;"/><line style="stroke: #A80036; stroke-width: 0.7;" x1="748.4888" x2="745.759" y1="472.5816" y2="467.6914"/><polygon fill="#A80036" points="713.195,409.3814,712.801,414.4138,717.2948,416.713,717.6887,411.6806,713.195,409.3814" style="stroke: #A80036; stroke-width: 0.7;"/><!--MD5=[6582ae606042274016c5ca6600923c57]
link models.Game to models.Attempt--><path codeLine="76" d="M371.7,254.6604 C371.7,254.6604 371.7,304.2624 371.7,322.4554 " fill="none" id="models.Game-models.Attempt" style="stroke: #A80036; stroke-width: 0.7;"/><polygon fill="#A80036" points="371.7,331.7794,374.5,325.4794,371.7,328.2794,368.9,325.4794,371.7,331.7794" style="stroke: #A80036; stroke-width: 0.7;"/><line style="stroke: #A80036; stroke-width: 0.7;" x1="371.7" x2="371.7" y1="328.2794" y2="322.6794"/><polygon fill="#FFFFFF" points="371.7,246.2604,368.9,250.4604,371.7,254.6604,374.5,250.4604,371.7,246.2604" style="stroke: #A80036; stroke-width: 0.7;"/><text fill="#000000" font-family="sans-serif" font-size="9.1" lengthAdjust="spacingAndGlyphs" textLength="17.5" x="351.9578" y="324.2871">0-10</text><!--MD5=[580af4c6a6e74e4c15178ccc0209456c]
link models.Attempt to models.ProposedCombination--><path codeLine="77" d="M354.211,372.4891 C354.211,372.4891 290.164,457.0304 266.973,487.6344 " fill="none" id="models.Attempt-models.ProposedCombination" style="stroke: #A80036; stroke-width: 0.7;"/><polygon fill="#A80036" points="261.471,494.9004,267.5072,491.5696,263.5845,492.1106,263.0434,488.188,261.471,494.9004" style="stroke: #A80036; stroke-width: 0.7;"/><line style="stroke: #A80036; stroke-width: 0.7;" x1="263.5845" x2="266.966" y1="492.1106" y2="487.6484"/><polygon fill="#A80036" points="359.282,365.7924,354.5143,367.4504,354.211,372.4891,358.9787,370.8311,359.282,365.7924" style="stroke: #A80036; stroke-width: 0.7;"/><!--MD5=[2842eeb7cb413ce4a0cae5dd91421a68]
link models.Attempt to models.SecretCombination--><path codeLine="78" d="M372.553,374.1876 C372.553,374.1876 375.375,455.4204 376.418,485.6534 " fill="none" id="models.Attempt-models.SecretCombination" style="stroke: #A80036; stroke-width: 0.7;"/><polygon fill="#A80036" points="376.74,494.9004,379.3169,488.5059,376.617,491.4026,373.7203,488.7027,376.74,494.9004" style="stroke: #A80036; stroke-width: 0.7;"/><line style="stroke: #A80036; stroke-width: 0.7;" x1="376.617" x2="376.425" y1="491.4026" y2="485.8074"/><polygon fill="#A80036" points="372.267,365.7924,369.6116,370.0853,372.553,374.1876,375.2084,369.8947,372.267,365.7924" style="stroke: #A80036; stroke-width: 0.7;"/><!--MD5=[7be7e42121b56f70d24468abf75f28a7]
reverse link models.Combination to models.ProposedCombination--><path codeLine="79" d="M249.2,379.9114 C249.2,414.0574 249.2,468.0904 249.2,494.9004 " fill="none" id="models.Combination-backto-models.ProposedCombination" style="stroke: #A80036; stroke-width: 0.7;"/><polygon fill="none" points="244.3,379.7924,249.2,365.7924,254.1,379.7924,244.3,379.7924" style="stroke: #A80036; stroke-width: 0.7;"/><!--MD5=[15f43ae688a3fcde37d838d03858a71c]
reverse link models.Combination to models.SecretCombination--><path codeLine="80" d="M271.04,376.9644 C297.899,410.8654 342.608,467.2994 364.469,494.9004 " fill="none" id="models.Combination-backto-models.SecretCombination" style="stroke: #A80036; stroke-width: 0.7;"/><polygon fill="none" points="267.043,379.8064,262.185,365.7924,274.722,373.7234,267.043,379.8064" style="stroke: #A80036; stroke-width: 0.7;"/><!--MD5=[c7181f6df9357bb60e274c04665004a0]
link models.Combination to models.Color--><path codeLine="81" d="M227.8745,371.8824 C227.8745,371.8824 183.4,418.8034 159.208,444.3184 " fill="none" id="models.Combination-models.Color" style="stroke: #A80036; stroke-width: 0.7;"/><polygon fill="#A80036" points="152.775,451.1084,159.1421,448.4646,155.1837,448.5691,155.0792,444.6107,152.775,451.1084" style="stroke: #A80036; stroke-width: 0.7;"/><line style="stroke: #A80036; stroke-width: 0.7;" x1="155.1837" x2="159.0365" y1="448.5691" y2="444.5039"/><polygon fill="#A80036" points="233.66,365.7924,228.7373,366.9089,227.8745,371.8824,232.7973,370.7659,233.66,365.7924" style="stroke: #A80036; stroke-width: 0.7;"/><text fill="#000000" font-family="sans-serif" font-size="9.1" lengthAdjust="spacingAndGlyphs" textLength="4.9" x="152.5521" y="443.6831">4</text><!--MD5=[ad65fdb2078c08fb327fea990917bd9e]
link views.console.View to utils.IO--><path codeLine="85" d="M794.759,224.5394 C819.252,241.1434 846.615,263.0464 865.9,288.1484 C913.591,350.2314 917.343,374.4304 932.4,451.2484 C944.188,511.3924 952.686,531.3144 932.4,589.1484 C927.598,602.8404 917.553,615.6154 908.495,625.1354 " fill="none" id="views.console.View-to-utils.IO" style="stroke: #A80036; stroke-width: 0.7; stroke-dasharray: 7.0,7.0;"/><polygon fill="#A80036" points="905.968,627.7324,912.367,625.1668,908.4076,625.2228,908.3516,621.2634,905.968,627.7324" style="stroke: #A80036; stroke-width: 0.7;"/><!--MD5=[aafeeb0939e5a01429693e397808da8c]
link views.console.GameView to utils.IO--><path codeLine="86" d="M754.761,402.1014 C758.919,404.5934 763.084,406.9944 767.2,409.2484 C809.011,432.1524 837.116,413.2454 865.9,451.2484 C904.694,502.4674 898.954,584.5214 893.753,621.9224 " fill="none" id="views.console.GameView-to-utils.IO" style="stroke: #A80036; stroke-width: 0.7; stroke-dasharray: 7.0,7.0;"/><polygon fill="#A80036" points="893.256,625.3944,896.9094,619.5478,893.7454,621.9288,891.3644,618.7648,893.256,625.3944" style="stroke: #A80036; stroke-width: 0.7;"/><!--MD5=[128e7c3015ad8015371ef984b7b2f22e]
link views.console.ResumeView to utils.IO--><path codeLine="87" d="M844.417,370.5104 C866.593,389.0044 895.79,418.0614 908.6,451.2484 C930.671,508.4244 918.778,528.7104 908.6,589.1484 C906.717,600.3344 902.727,612.3184 898.961,622.0064 " fill="none" id="views.console.ResumeView-to-utils.IO" style="stroke: #A80036; stroke-width: 0.7; stroke-dasharray: 7.0,7.0;"/><polygon fill="#A80036" points="897.582,625.4644,902.5036,620.6366,898.8698,622.21,897.2965,618.5762,897.582,625.4644" style="stroke: #A80036; stroke-width: 0.7;"/><!--MD5=[720643f3e108c024c916c5a3d959144e]
link views.console.SecretCombinationView to utils.IO--><path codeLine="88" d="M803.222,548.1284 C825.643,572.1874 854.364,602.9944 872.578,622.5314 " fill="none" id="views.console.SecretCombinationView-to-utils.IO" style="stroke: #A80036; stroke-width: 0.7; stroke-dasharray: 7.0,7.0;"/><polygon fill="#A80036" points="875.189,625.3314,872.9364,618.8156,872.8005,622.7731,868.8431,622.6372,875.189,625.3314" style="stroke: #A80036; stroke-width: 0.7;"/><!--MD5=[c7c1302a0008715e5c7ff34117f3079c]
link views.console.AttemptView to utils.IO--><path codeLine="89" d="M607.033,547.9744 C626.731,562.5414 650.923,578.4594 674.8,589.1484 C743.435,619.8784 832.755,634.2704 871.311,639.3734 " fill="none" id="views.console.AttemptView-to-utils.IO" style="stroke: #A80036; stroke-width: 0.7; stroke-dasharray: 7.0,7.0;"/><polygon fill="#A80036" points="874.881,639.8354,869.0036,636.2318,871.4114,639.3755,868.2677,641.7832,874.881,639.8354" style="stroke: #A80036; stroke-width: 0.7;"/><!--MD5=[a526ab5cc6a4dafcfad5008a51a8f720]
@startuml

title Mastermind Controler View

class Mastermind{
- game : Game
- view : View
+ play() : void
{static} main :void
}

Mastermind *- -> models.Game
Mastermind *- -> views.console.View
namespace views.console{
class View{
- gameView : GameView
- resumeView : ResumeView
- game : Game
- reset : void
+ interact : void

}
class GameView{
- game : Game
- attemptView : AttemptView
- secretCombination : SecretCombination
+ interact() : void
- writeNumOfAttempts() : void
- writeSecretCombination : void
- addAttempt() : void
- writeAttempts() : void
+ writeResult() : void
}
class ResumeView{
+ interact() : void
}
class AttemptView{
- game : Game
+ writeln(int attempts) : void
+ interact(SecretCombination secretCombination) : void
+{static} writeColors(Attempt addAttempt) : void
}
class SecretCombinationView{
- secretCombination : SecretCombination
+ writeln() : void
+ getSecretCombination() : SecretCombination
- writeColors() : void
}
View *- -> GameView
View ..> ResumeView
GameView o- -> AttemptView
GameView *- -> SecretCombinationView
}

namespace models{
Enum Color{
RED
BLUE
YELLOW
ORANGE
PINK
GREEN
+ toChar() : char
+ {static} valueOf(char character) : Color
+ {static} isValidColor(char character) : boolean
}
class Game{
- attemptList : List<Attempt>
+ addAttempt : void
+ getNumOfAttempts : int
+ getAttemptListSize : int
+ isFinished : boolean
+ isWinner : boolean
+ isLooser : boolean
+ resetAttemptList : void
}
Game o- ->"0-10" Attempt
Attempt *- -> ProposedCombination
Attempt *- -> SecretCombination
Combination <|-down- ProposedCombination
Combination <|-down- SecretCombination
Combination *- ->"4" Color
}

namespace utils{
views.console.View ..> IO
views.console.GameView ..> IO
views.console.ResumeView ..> IO
views.console.SecretCombinationView ..> IO
views.console.AttemptView ..> IO


}
@enduml

PlantUML version 1.2020.20(Sat Nov 21 11:02:45 CET 2020)
(GPL source distribution)
Java Runtime: OpenJDK Runtime Environment
JVM: OpenJDK 64-Bit Server VM
Default Encoding: Cp1252
Language: es
Country: ES
--></g></svg>