<?xml version="1.0" encoding="UTF-8" standalone="no"?><svg xmlns="http://www.w3.org/2000/svg" xmlns:xlink="http://www.w3.org/1999/xlink" contentScriptType="application/ecmascript" contentStyleType="text/css" height="578.4px" preserveAspectRatio="none" style="width:991px;height:578px;" version="1.1" viewBox="0 0 991 578" width="991.8px" zoomAndPan="magnify"><defs><filter height="300%" id="f1xj12y106hvu9" width="300%" x="-1" y="-1"><feGaussianBlur result="blurOut" stdDeviation="1.2"/><feColorMatrix in="blurOut" result="blurOut2" type="matrix" values="0 0 0 0 0 0 0 0 0 0 0 0 0 0 0 0 0 0 .4 0"/><feOffset dx="2.4" dy="2.4" in="blurOut2" result="blurOut3"/><feBlend in="SourceGraphic" in2="blurOut3" mode="normal"/></filter></defs><g><text fill="#000000" font-family="sans-serif" font-size="10.8" lengthAdjust="spacingAndGlyphs" textLength="129" x="427.554" y="11.2113">Mastermind Controler View</text><!--MD5=[a60570e4b426f702ccbb0d459e3b9417]
cluster models--><polygon fill="#FFFFFF" filter="url(#f1xj12y106hvu9)" points="486.108,93.9844,520.308,93.9844,524.508,108.15,850.908,108.15,850.908,500.1844,486.108,500.1844,486.108,93.9844" style="stroke: #000000; stroke-width: 0.8999999999999999;"/><line style="stroke: #000000; stroke-width: 0.8999999999999999;" x1="486.108" x2="524.508" y1="108.15" y2="108.15"/><text fill="#000000" font-family="sans-serif" font-size="8.4" font-weight="bold" lengthAdjust="spacingAndGlyphs" textLength="30.6" x="488.508" y="103.9043">models</text><!--MD5=[3d2289c64ab922d4a1148c2b2950c1a6]
cluster views.console--><polygon fill="#FFFFFF" filter="url(#f1xj12y106hvu9)" points="89.508,106.5844,153.708,106.5844,157.908,120.75,441.708,120.75,441.708,479.1844,89.508,479.1844,89.508,106.5844" style="stroke: #000000; stroke-width: 0.8999999999999999;"/><line style="stroke: #000000; stroke-width: 0.8999999999999999;" x1="89.508" x2="157.908" y1="120.75" y2="120.75"/><text fill="#000000" font-family="sans-serif" font-size="8.4" font-weight="bold" lengthAdjust="spacingAndGlyphs" textLength="60.6" x="91.908" y="116.5043">views.console</text><!--MD5=[5c7f87173935b24fa84626a0ac4e4222]
cluster views.graphic--><polygon fill="#FFFFFF" filter="url(#f1xj12y106hvu9)" points="865.308,106.5844,927.708,106.5844,931.908,120.75,981.708,120.75,981.708,207.9844,865.308,207.9844,865.308,106.5844" style="stroke: #000000; stroke-width: 0.8999999999999999;"/><line style="stroke: #000000; stroke-width: 0.8999999999999999;" x1="865.308" x2="931.908" y1="120.75" y2="120.75"/><text fill="#000000" font-family="sans-serif" font-size="8.4" font-weight="bold" lengthAdjust="spacingAndGlyphs" textLength="58.8" x="867.708" y="116.5043">views.graphic</text><!--MD5=[c52f45833d539af9e29a9d34b8b7302b]
cluster utils--><polygon fill="#FFFFFF" filter="url(#f1xj12y106hvu9)" points="11.508,514.5844,33.108,514.5844,37.308,528.75,141.708,528.75,141.708,574.5844,11.508,574.5844,11.508,514.5844" style="stroke: #000000; stroke-width: 0.8999999999999999;"/><line style="stroke: #000000; stroke-width: 0.8999999999999999;" x1="11.508" x2="37.308" y1="528.75" y2="528.75"/><text fill="#000000" font-family="sans-serif" font-size="8.4" font-weight="bold" lengthAdjust="spacingAndGlyphs" textLength="18" x="13.908" y="524.5043">utils</text><!--MD5=[1ea5cf3e691bb3552ec8d5f9a56af156]
class models.Game--><rect codeLine="83" fill="#FEFECE" filter="url(#f1xj12y106hvu9)" height="95.2125" id="models.Game" style="stroke: #A80036; stroke-width: 0.8999999999999999;" width="91.8" x="730.008" y="115.5844"/><ellipse cx="763.158" cy="125.1844" fill="#ADD1B2" rx="6.6" ry="6.6" style="stroke: #A80036; stroke-width: 0.6;"/><path d="M764.358,123.0844 Q764.4799,122.7844 764.6205,122.6344 Q764.7611,122.4844 764.9205,122.4844 Q765.2018,122.4844 765.3799,122.6531 Q765.558,122.8219 765.558,123.2156 L765.558,124.1531 Q765.558,124.5469 765.3893,124.7156 Q765.2205,124.8844 764.958,124.8844 Q764.7236,124.8844 764.5736,124.7813 Q764.4236,124.6781 764.358,124.4063 Q764.3299,124.2188 764.2268,124.1156 Q764.0393,123.9187 763.7018,123.8062 Q763.3643,123.6844 763.0268,123.6844 Q762.6049,123.6844 762.2486,123.8531 Q761.9018,124.0219 761.6299,124.3969 Q761.358,124.7719 761.358,125.2875 L761.358,125.8406 Q761.358,126.4594 761.8643,126.8719 Q762.3705,127.2844 763.2705,127.2844 Q763.8049,127.2844 764.1799,127.1625 Q764.3955,127.0969 764.6393,126.8813 Q764.7986,126.7594 764.883,126.7219 Q764.9674,126.6844 765.0705,126.6844 Q765.2674,126.6844 765.408,126.8438 Q765.558,126.9937 765.558,127.2094 Q765.558,127.4156 765.3518,127.6594 Q765.0518,128.0156 764.5736,128.2125 Q763.9455,128.4844 763.1768,128.4844 Q762.2768,128.4844 761.5549,128.1281 Q760.9736,127.8469 760.5611,127.2375 Q760.158,126.6281 760.158,125.9063 L760.158,125.25 Q760.158,124.5 760.5143,123.8438 Q760.8799,123.1875 761.508,122.8406 Q762.1455,122.4844 762.858,122.4844 Q763.2893,122.4844 763.6643,122.6344 Q764.0393,122.7844 764.358,123.0844 Z " fill="#000000"/><text fill="#000000" font-family="sans-serif" font-size="7.2" lengthAdjust="spacingAndGlyphs" textLength="20.4" x="775.458" y="128.1305">Game</text><line style="stroke: #A80036; stroke-width: 0.8999999999999999;" x1="730.608" x2="821.208" y1="134.7844" y2="134.7844"/><rect fill="none" height="3.6" style="stroke: #C82930; stroke-width: 0.6;" width="3.6" x="734.808" y="139.5844"/><text fill="#000000" font-family="sans-serif" font-size="6.6" lengthAdjust="spacingAndGlyphs" textLength="76.2" x="742.008" y="144.0357">attemptList : List&lt;Attempt&gt;</text><ellipse cx="736.608" cy="149.6859" fill="none" rx="1.8" ry="1.8" style="stroke: #038048; stroke-width: 0.6;"/><text fill="#000000" font-family="sans-serif" font-size="6.6" lengthAdjust="spacingAndGlyphs" textLength="50.4" x="742.008" y="152.3373">addAttempt : void</text><ellipse cx="736.608" cy="157.9875" fill="none" rx="1.8" ry="1.8" style="stroke: #038048; stroke-width: 0.6;"/><text fill="#000000" font-family="sans-serif" font-size="6.6" lengthAdjust="spacingAndGlyphs" textLength="66.6" x="742.008" y="160.6389">getNumOfAttempts : int</text><ellipse cx="736.608" cy="166.2891" fill="none" rx="1.8" ry="1.8" style="stroke: #038048; stroke-width: 0.6;"/><text fill="#000000" font-family="sans-serif" font-size="6.6" lengthAdjust="spacingAndGlyphs" textLength="66" x="742.008" y="168.9404">getAttemptListSize : int</text><ellipse cx="736.608" cy="174.5906" fill="none" rx="1.8" ry="1.8" style="stroke: #038048; stroke-width: 0.6;"/><text fill="#000000" font-family="sans-serif" font-size="6.6" lengthAdjust="spacingAndGlyphs" textLength="57" x="742.008" y="177.242">isFinished : boolean</text><ellipse cx="736.608" cy="182.8922" fill="none" rx="1.8" ry="1.8" style="stroke: #038048; stroke-width: 0.6;"/><text fill="#000000" font-family="sans-serif" font-size="6.6" lengthAdjust="spacingAndGlyphs" textLength="53.4" x="742.008" y="185.5436">isWinner : boolean</text><ellipse cx="736.608" cy="191.1938" fill="none" rx="1.8" ry="1.8" style="stroke: #038048; stroke-width: 0.6;"/><text fill="#000000" font-family="sans-serif" font-size="6.6" lengthAdjust="spacingAndGlyphs" textLength="53.4" x="742.008" y="193.8451">isLooser : boolean</text><ellipse cx="736.608" cy="199.4953" fill="none" rx="1.8" ry="1.8" style="stroke: #038048; stroke-width: 0.6;"/><text fill="#000000" font-family="sans-serif" font-size="6.6" lengthAdjust="spacingAndGlyphs" textLength="64.8" x="742.008" y="202.1467">resetAttemptList : void</text><line style="stroke: #A80036; stroke-width: 0.8999999999999999;" x1="730.608" x2="821.208" y1="205.9969" y2="205.9969"/><!--MD5=[58499357d4445bcc3ecc978ad55497c9]
class models.Color--><rect codeLine="72" fill="#FEFECE" filter="url(#f1xj12y106hvu9)" height="103.5141" id="models.Color" style="stroke: #A80036; stroke-width: 0.8999999999999999;" width="126" x="495.708" y="386.7844"/><ellipse cx="547.158" cy="396.3844" fill="#EB937F" rx="6.6" ry="6.6" style="stroke: #A80036; stroke-width: 0.6;"/><path d="M546.258,396.9844 L546.258,398.1844 L548.658,398.1844 L548.658,397.5844 L548.658,397.2938 L549.033,396.9844 L549.258,396.9844 L549.483,396.9844 L549.858,397.2938 L549.858,397.5844 L549.858,399.3844 L545.058,399.3844 L544.7674,399.3844 L544.458,399.0094 L544.458,398.7844 L544.458,398.5594 L544.7674,398.1844 L545.058,398.1844 L545.058,398.1844 L545.058,394.5844 L545.058,394.5844 L544.7674,394.5844 L544.458,394.2094 L544.458,393.9844 L544.458,393.7594 L544.7674,393.3844 L545.058,393.3844 L549.858,393.3844 L549.858,395.1844 L549.858,395.475 L549.483,395.7844 L549.258,395.7844 L549.033,395.7844 L548.658,395.475 L548.658,395.1844 L548.658,394.5844 L546.258,394.5844 L546.258,395.7844 L546.858,395.7844 L546.858,395.4938 L546.858,395.4938 L547.233,395.1844 L547.458,395.1844 L547.683,395.1844 L548.058,395.4938 L548.058,395.7844 L548.058,396.9844 L548.058,397.275 L547.683,397.5844 L547.683,397.5844 L547.458,397.5844 L547.233,397.5844 L546.858,397.275 L546.858,397.275 L546.858,396.9844 L546.258,396.9844 Z " fill="#000000"/><text fill="#000000" font-family="sans-serif" font-size="7.2" lengthAdjust="spacingAndGlyphs" textLength="18" x="559.458" y="399.3305">Color</text><line style="stroke: #A80036; stroke-width: 0.8999999999999999;" x1="496.308" x2="621.108" y1="405.9844" y2="405.9844"/><text fill="#000000" font-family="sans-serif" font-size="6.6" lengthAdjust="spacingAndGlyphs" textLength="12" x="499.308" y="415.2357">RED</text><text fill="#000000" font-family="sans-serif" font-size="6.6" lengthAdjust="spacingAndGlyphs" textLength="15.6" x="499.308" y="423.5373">BLUE</text><text fill="#000000" font-family="sans-serif" font-size="6.6" lengthAdjust="spacingAndGlyphs" textLength="26.4" x="499.308" y="431.8389">YELLOW</text><text fill="#000000" font-family="sans-serif" font-size="6.6" lengthAdjust="spacingAndGlyphs" textLength="26.4" x="499.308" y="440.1404">ORANGE</text><text fill="#000000" font-family="sans-serif" font-size="6.6" lengthAdjust="spacingAndGlyphs" textLength="13.2" x="499.308" y="448.442">PINK</text><text fill="#000000" font-family="sans-serif" font-size="6.6" lengthAdjust="spacingAndGlyphs" textLength="20.4" x="499.308" y="456.7436">GREEN</text><line style="stroke: #A80036; stroke-width: 0.8999999999999999;" x1="496.308" x2="621.108" y1="460.5938" y2="460.5938"/><ellipse cx="502.308" cy="467.1937" fill="#84BE84" rx="1.8" ry="1.8" style="stroke: #038048; stroke-width: 0.6;"/><text fill="#000000" font-family="sans-serif" font-size="6.6" lengthAdjust="spacingAndGlyphs" textLength="42.6" x="507.708" y="469.8451">toChar() : char</text><ellipse cx="502.308" cy="475.4953" fill="#84BE84" rx="1.8" ry="1.8" style="stroke: #038048; stroke-width: 0.6;"/><text fill="#000000" font-family="sans-serif" font-size="6.6" lengthAdjust="spacingAndGlyphs" text-decoration="underline" textLength="91.2" x="507.708" y="478.1467">valueOf(char character) : Color</text><ellipse cx="502.308" cy="483.7969" fill="#84BE84" rx="1.8" ry="1.8" style="stroke: #038048; stroke-width: 0.6;"/><text fill="#000000" font-family="sans-serif" font-size="6.6" lengthAdjust="spacingAndGlyphs" text-decoration="underline" textLength="110.4" x="507.708" y="486.4482">isValidColor(char character) : boolean</text><!--MD5=[54d08704be622b91252e030e0f93b574]
class models.Attempt--><rect fill="#FEFECE" filter="url(#f1xj12y106hvu9)" height="28.8" id="models.Attempt" style="stroke: #A80036; stroke-width: 0.8999999999999999;" width="43.8" x="754.008" y="284.4844"/><ellipse cx="763.008" cy="294.0844" fill="#ADD1B2" rx="6.6" ry="6.6" style="stroke: #A80036; stroke-width: 0.6;"/><path d="M764.208,291.9844 Q764.3299,291.6844 764.4705,291.5344 Q764.6111,291.3844 764.7705,291.3844 Q765.0518,291.3844 765.2299,291.5531 Q765.408,291.7219 765.408,292.1156 L765.408,293.0531 Q765.408,293.4469 765.2393,293.6156 Q765.0705,293.7844 764.808,293.7844 Q764.5736,293.7844 764.4236,293.6813 Q764.2736,293.5781 764.208,293.3063 Q764.1799,293.1188 764.0768,293.0156 Q763.8893,292.8187 763.5518,292.7063 Q763.2143,292.5844 762.8768,292.5844 Q762.4549,292.5844 762.0986,292.7531 Q761.7518,292.9219 761.4799,293.2969 Q761.208,293.6719 761.208,294.1875 L761.208,294.7406 Q761.208,295.3594 761.7143,295.7719 Q762.2205,296.1844 763.1205,296.1844 Q763.6549,296.1844 764.0299,296.0625 Q764.2455,295.9969 764.4893,295.7813 Q764.6486,295.6594 764.733,295.6219 Q764.8174,295.5844 764.9205,295.5844 Q765.1174,295.5844 765.258,295.7438 Q765.408,295.8938 765.408,296.1094 Q765.408,296.3156 765.2018,296.5594 Q764.9018,296.9156 764.4236,297.1125 Q763.7955,297.3844 763.0268,297.3844 Q762.1268,297.3844 761.4049,297.0281 Q760.8236,296.7469 760.4111,296.1375 Q760.008,295.5281 760.008,294.8063 L760.008,294.15 Q760.008,293.4 760.3643,292.7438 Q760.7299,292.0875 761.358,291.7406 Q761.9955,291.3844 762.708,291.3844 Q763.1393,291.3844 763.5143,291.5344 Q763.8893,291.6844 764.208,291.9844 Z " fill="#000000"/><text fill="#000000" font-family="sans-serif" font-size="7.2" lengthAdjust="spacingAndGlyphs" textLength="24.6" x="771.408" y="297.0305">Attempt</text><line style="stroke: #A80036; stroke-width: 0.8999999999999999;" x1="754.608" x2="797.208" y1="303.6844" y2="303.6844"/><line style="stroke: #A80036; stroke-width: 0.8999999999999999;" x1="754.608" x2="797.208" y1="308.4844" y2="308.4844"/><!--MD5=[9d437554863e80ad96398a79d9b4582d]
class models.ProposedCombination--><rect fill="#FEFECE" filter="url(#f1xj12y106hvu9)" height="28.8" id="models.ProposedCombination" style="stroke: #A80036; stroke-width: 0.8999999999999999;" width="94.2" x="746.808" y="424.2844"/><ellipse cx="755.808" cy="433.8844" fill="#ADD1B2" rx="6.6" ry="6.6" style="stroke: #A80036; stroke-width: 0.6;"/><path d="M757.008,431.7844 Q757.1299,431.4844 757.2705,431.3344 Q757.4111,431.1844 757.5705,431.1844 Q757.8518,431.1844 758.0299,431.3531 Q758.208,431.5219 758.208,431.9156 L758.208,432.8531 Q758.208,433.2469 758.0393,433.4156 Q757.8705,433.5844 757.608,433.5844 Q757.3736,433.5844 757.2236,433.4813 Q757.0736,433.3781 757.008,433.1063 Q756.9799,432.9188 756.8768,432.8156 Q756.6893,432.6188 756.3518,432.5062 Q756.0143,432.3844 755.6768,432.3844 Q755.2549,432.3844 754.8986,432.5531 Q754.5518,432.7219 754.2799,433.0969 Q754.008,433.4719 754.008,433.9875 L754.008,434.5406 Q754.008,435.1594 754.5143,435.5719 Q755.0205,435.9844 755.9205,435.9844 Q756.4549,435.9844 756.8299,435.8625 Q757.0455,435.7969 757.2893,435.5813 Q757.4486,435.4594 757.533,435.4219 Q757.6174,435.3844 757.7205,435.3844 Q757.9174,435.3844 758.058,435.5438 Q758.208,435.6937 758.208,435.9094 Q758.208,436.1156 758.0018,436.3594 Q757.7018,436.7156 757.2236,436.9125 Q756.5955,437.1844 755.8268,437.1844 Q754.9268,437.1844 754.2049,436.8281 Q753.6236,436.5469 753.2111,435.9375 Q752.808,435.3281 752.808,434.6063 L752.808,433.95 Q752.808,433.2 753.1643,432.5438 Q753.5299,431.8875 754.158,431.5406 Q754.7955,431.1844 755.508,431.1844 Q755.9393,431.1844 756.3143,431.3344 Q756.6893,431.4844 757.008,431.7844 Z " fill="#000000"/><text fill="#000000" font-family="sans-serif" font-size="7.2" lengthAdjust="spacingAndGlyphs" textLength="75" x="764.208" y="436.8305">ProposedCombination</text><line style="stroke: #A80036; stroke-width: 0.8999999999999999;" x1="747.408" x2="840.408" y1="443.4844" y2="443.4844"/><line style="stroke: #A80036; stroke-width: 0.8999999999999999;" x1="747.408" x2="840.408" y1="448.2844" y2="448.2844"/><!--MD5=[b89ed330bc8394929f0ad94fa56293db]
class models.SecretCombination--><rect fill="#FEFECE" filter="url(#f1xj12y106hvu9)" height="28.8" id="models.SecretCombination" style="stroke: #A80036; stroke-width: 0.8999999999999999;" width="82.8" x="642.708" y="424.2844"/><ellipse cx="651.708" cy="433.8844" fill="#ADD1B2" rx="6.6" ry="6.6" style="stroke: #A80036; stroke-width: 0.6;"/><path d="M652.908,431.7844 Q653.0299,431.4844 653.1705,431.3344 Q653.3111,431.1844 653.4705,431.1844 Q653.7518,431.1844 653.9299,431.3531 Q654.108,431.5219 654.108,431.9156 L654.108,432.8531 Q654.108,433.2469 653.9393,433.4156 Q653.7705,433.5844 653.508,433.5844 Q653.2736,433.5844 653.1236,433.4813 Q652.9736,433.3781 652.908,433.1063 Q652.8799,432.9188 652.7768,432.8156 Q652.5893,432.6188 652.2518,432.5062 Q651.9143,432.3844 651.5768,432.3844 Q651.1549,432.3844 650.7986,432.5531 Q650.4518,432.7219 650.1799,433.0969 Q649.908,433.4719 649.908,433.9875 L649.908,434.5406 Q649.908,435.1594 650.4143,435.5719 Q650.9205,435.9844 651.8205,435.9844 Q652.3549,435.9844 652.7299,435.8625 Q652.9455,435.7969 653.1893,435.5813 Q653.3486,435.4594 653.433,435.4219 Q653.5174,435.3844 653.6205,435.3844 Q653.8174,435.3844 653.958,435.5438 Q654.108,435.6937 654.108,435.9094 Q654.108,436.1156 653.9018,436.3594 Q653.6018,436.7156 653.1236,436.9125 Q652.4955,437.1844 651.7268,437.1844 Q650.8268,437.1844 650.1049,436.8281 Q649.5236,436.5469 649.1111,435.9375 Q648.708,435.3281 648.708,434.6063 L648.708,433.95 Q648.708,433.2 649.0643,432.5438 Q649.4299,431.8875 650.058,431.5406 Q650.6955,431.1844 651.408,431.1844 Q651.8393,431.1844 652.2143,431.3344 Q652.5893,431.4844 652.908,431.7844 Z " fill="#000000"/><text fill="#000000" font-family="sans-serif" font-size="7.2" lengthAdjust="spacingAndGlyphs" textLength="63.6" x="660.108" y="436.8305">SecretCombination</text><line style="stroke: #A80036; stroke-width: 0.8999999999999999;" x1="643.308" x2="724.908" y1="443.4844" y2="443.4844"/><line style="stroke: #A80036; stroke-width: 0.8999999999999999;" x1="643.308" x2="724.908" y1="448.2844" y2="448.2844"/><!--MD5=[3ab7dea9c5f32da8266d9170b1b41dc7]
class models.Combination--><rect fill="#FEFECE" filter="url(#f1xj12y106hvu9)" height="28.8" id="models.Combination" style="stroke: #A80036; stroke-width: 0.8999999999999999;" width="61.8" x="653.208" y="284.4844"/><ellipse cx="662.208" cy="294.0844" fill="#ADD1B2" rx="6.6" ry="6.6" style="stroke: #A80036; stroke-width: 0.6;"/><path d="M663.408,291.9844 Q663.5299,291.6844 663.6705,291.5344 Q663.8111,291.3844 663.9705,291.3844 Q664.2518,291.3844 664.4299,291.5531 Q664.608,291.7219 664.608,292.1156 L664.608,293.0531 Q664.608,293.4469 664.4393,293.6156 Q664.2705,293.7844 664.008,293.7844 Q663.7736,293.7844 663.6236,293.6813 Q663.4736,293.5781 663.408,293.3063 Q663.3799,293.1188 663.2768,293.0156 Q663.0893,292.8187 662.7518,292.7063 Q662.4143,292.5844 662.0768,292.5844 Q661.6549,292.5844 661.2986,292.7531 Q660.9518,292.9219 660.6799,293.2969 Q660.408,293.6719 660.408,294.1875 L660.408,294.7406 Q660.408,295.3594 660.9143,295.7719 Q661.4205,296.1844 662.3205,296.1844 Q662.8549,296.1844 663.2299,296.0625 Q663.4455,295.9969 663.6893,295.7813 Q663.8486,295.6594 663.933,295.6219 Q664.0174,295.5844 664.1205,295.5844 Q664.3174,295.5844 664.458,295.7438 Q664.608,295.8938 664.608,296.1094 Q664.608,296.3156 664.4018,296.5594 Q664.1018,296.9156 663.6236,297.1125 Q662.9955,297.3844 662.2268,297.3844 Q661.3268,297.3844 660.6049,297.0281 Q660.0236,296.7469 659.6111,296.1375 Q659.208,295.5281 659.208,294.8063 L659.208,294.15 Q659.208,293.4 659.5643,292.7438 Q659.9299,292.0875 660.558,291.7406 Q661.1955,291.3844 661.908,291.3844 Q662.3393,291.3844 662.7143,291.5344 Q663.0893,291.6844 663.408,291.9844 Z " fill="#000000"/><text fill="#000000" font-family="sans-serif" font-size="7.2" lengthAdjust="spacingAndGlyphs" textLength="42.6" x="670.608" y="297.0305">Combination</text><line style="stroke: #A80036; stroke-width: 0.8999999999999999;" x1="653.808" x2="714.408" y1="303.6844" y2="303.6844"/><line style="stroke: #A80036; stroke-width: 0.8999999999999999;" x1="653.808" x2="714.408" y1="308.4844" y2="308.4844"/><!--MD5=[87c6da2cef8aef96d064630939ddcd88]
class views.console.View--><rect codeLine="32" fill="#FEFECE" filter="url(#f1xj12y106hvu9)" height="70.3078" id="views.console.View" style="stroke: #A80036; stroke-width: 0.8999999999999999;" width="97.2" x="291.708" y="128.1844"/><ellipse cx="329.958" cy="137.7844" fill="#ADD1B2" rx="6.6" ry="6.6" style="stroke: #A80036; stroke-width: 0.6;"/><path d="M331.158,135.6844 Q331.2799,135.3844 331.4205,135.2344 Q331.5611,135.0844 331.7205,135.0844 Q332.0018,135.0844 332.1799,135.2531 Q332.358,135.4219 332.358,135.8156 L332.358,136.7531 Q332.358,137.1469 332.1893,137.3156 Q332.0205,137.4844 331.758,137.4844 Q331.5236,137.4844 331.3736,137.3813 Q331.2236,137.2781 331.158,137.0063 Q331.1299,136.8188 331.0268,136.7156 Q330.8393,136.5187 330.5018,136.4063 Q330.1643,136.2844 329.8268,136.2844 Q329.4049,136.2844 329.0486,136.4531 Q328.7018,136.6219 328.4299,136.9969 Q328.158,137.3719 328.158,137.8875 L328.158,138.4406 Q328.158,139.0594 328.6643,139.4719 Q329.1705,139.8844 330.0705,139.8844 Q330.6049,139.8844 330.9799,139.7625 Q331.1955,139.6969 331.4393,139.4813 Q331.5986,139.3594 331.683,139.3219 Q331.7674,139.2844 331.8705,139.2844 Q332.0674,139.2844 332.208,139.4438 Q332.358,139.5938 332.358,139.8094 Q332.358,140.0156 332.1518,140.2594 Q331.8518,140.6156 331.3736,140.8125 Q330.7455,141.0844 329.9768,141.0844 Q329.0768,141.0844 328.3549,140.7281 Q327.7736,140.4469 327.3611,139.8375 Q326.958,139.2281 326.958,138.5063 L326.958,137.85 Q326.958,137.1 327.3143,136.4438 Q327.6799,135.7875 328.308,135.4406 Q328.9455,135.0844 329.658,135.0844 Q330.0893,135.0844 330.4643,135.2344 Q330.8393,135.3844 331.158,135.6844 Z " fill="#000000"/><text fill="#000000" font-family="sans-serif" font-size="7.2" lengthAdjust="spacingAndGlyphs" textLength="15.6" x="342.258" y="140.7305">View</text><line style="stroke: #A80036; stroke-width: 0.8999999999999999;" x1="292.308" x2="388.308" y1="147.3844" y2="147.3844"/><rect fill="none" height="3.6" style="stroke: #C82930; stroke-width: 0.6;" width="3.6" x="296.508" y="152.1844"/><text fill="#000000" font-family="sans-serif" font-size="6.6" lengthAdjust="spacingAndGlyphs" textLength="69" x="303.708" y="156.6357">gameView : GameView</text><rect fill="none" height="3.6" style="stroke: #C82930; stroke-width: 0.6;" width="3.6" x="296.508" y="160.4859"/><text fill="#000000" font-family="sans-serif" font-size="6.6" lengthAdjust="spacingAndGlyphs" textLength="81.6" x="303.708" y="164.9373">resumeView : ResumeView</text><rect fill="none" height="3.6" style="stroke: #C82930; stroke-width: 0.6;" width="3.6" x="296.508" y="168.7875"/><text fill="#000000" font-family="sans-serif" font-size="6.6" lengthAdjust="spacingAndGlyphs" textLength="37.8" x="303.708" y="173.2389">game : Game</text><rect fill="none" height="3.6" style="stroke: #C82930; stroke-width: 0.6;" width="3.6" x="296.508" y="177.0891"/><text fill="#000000" font-family="sans-serif" font-size="6.6" lengthAdjust="spacingAndGlyphs" textLength="32.4" x="303.708" y="181.5404">reset : void</text><ellipse cx="298.308" cy="187.1906" fill="none" rx="1.8" ry="1.8" style="stroke: #038048; stroke-width: 0.6;"/><text fill="#000000" font-family="sans-serif" font-size="6.6" lengthAdjust="spacingAndGlyphs" textLength="39" x="303.708" y="189.842">interact : void</text><line style="stroke: #A80036; stroke-width: 0.8999999999999999;" x1="292.308" x2="388.308" y1="193.6922" y2="193.6922"/><!--MD5=[9f4dc69b0b544243f394be7db57a7790]
class views.console.GameView--><rect codeLine="39" fill="#FEFECE" filter="url(#f1xj12y106hvu9)" height="103.5141" id="views.console.GameView" style="stroke: #A80036; stroke-width: 0.8999999999999999;" width="128.4" x="233.508" y="246.9844"/><ellipse cx="277.158" cy="256.5844" fill="#ADD1B2" rx="6.6" ry="6.6" style="stroke: #A80036; stroke-width: 0.6;"/><path d="M278.358,254.4844 Q278.4799,254.1844 278.6205,254.0344 Q278.7611,253.8844 278.9205,253.8844 Q279.2018,253.8844 279.3799,254.0531 Q279.558,254.2219 279.558,254.6156 L279.558,255.5531 Q279.558,255.9469 279.3893,256.1156 Q279.2205,256.2844 278.958,256.2844 Q278.7236,256.2844 278.5736,256.1813 Q278.4236,256.0781 278.358,255.8062 Q278.3299,255.6187 278.2268,255.5156 Q278.0393,255.3188 277.7018,255.2062 Q277.3642,255.0844 277.0268,255.0844 Q276.6049,255.0844 276.2486,255.2531 Q275.9018,255.4219 275.6299,255.7969 Q275.358,256.1719 275.358,256.6875 L275.358,257.2406 Q275.358,257.8594 275.8642,258.2719 Q276.3705,258.6844 277.2705,258.6844 Q277.8049,258.6844 278.1799,258.5625 Q278.3955,258.4969 278.6393,258.2813 Q278.7986,258.1594 278.883,258.1219 Q278.9674,258.0844 279.0705,258.0844 Q279.2674,258.0844 279.408,258.2438 Q279.558,258.3938 279.558,258.6094 Q279.558,258.8156 279.3518,259.0594 Q279.0517,259.4156 278.5736,259.6125 Q277.9455,259.8844 277.1767,259.8844 Q276.2768,259.8844 275.5549,259.5281 Q274.9736,259.2469 274.5611,258.6375 Q274.158,258.0281 274.158,257.3063 L274.158,256.65 Q274.158,255.9 274.5143,255.2437 Q274.8799,254.5875 275.508,254.2406 Q276.1455,253.8844 276.858,253.8844 Q277.2893,253.8844 277.6643,254.0344 Q278.0393,254.1844 278.358,254.4844 Z " fill="#000000"/><text fill="#000000" font-family="sans-serif" font-size="7.2" lengthAdjust="spacingAndGlyphs" textLength="36" x="289.458" y="259.5305">GameView</text><line style="stroke: #A80036; stroke-width: 0.8999999999999999;" x1="234.108" x2="361.308" y1="266.1844" y2="266.1844"/><rect fill="none" height="3.6" style="stroke: #C82930; stroke-width: 0.6;" width="3.6" x="238.308" y="270.9844"/><text fill="#000000" font-family="sans-serif" font-size="6.6" lengthAdjust="spacingAndGlyphs" textLength="37.8" x="245.508" y="275.4357">game : Game</text><rect fill="none" height="3.6" style="stroke: #C82930; stroke-width: 0.6;" width="3.6" x="238.308" y="279.2859"/><text fill="#000000" font-family="sans-serif" font-size="6.6" lengthAdjust="spacingAndGlyphs" textLength="79.8" x="245.508" y="283.7373">attemptView : AttemptView</text><rect fill="none" height="3.6" style="stroke: #C82930; stroke-width: 0.6;" width="3.6" x="238.308" y="287.5875"/><text fill="#000000" font-family="sans-serif" font-size="6.6" lengthAdjust="spacingAndGlyphs" textLength="112.8" x="245.508" y="292.0389">secretCombination : SecretCombination</text><rect fill="none" height="3.6" style="stroke: #C82930; stroke-width: 0.6;" width="3.6" x="238.308" y="295.8891"/><text fill="#000000" font-family="sans-serif" font-size="6.6" lengthAdjust="spacingAndGlyphs" textLength="86.4" x="245.508" y="300.3404">writeSecretCombination : void</text><line style="stroke: #A80036; stroke-width: 0.8999999999999999;" x1="234.108" x2="361.308" y1="304.1906" y2="304.1906"/><ellipse cx="240.108" cy="310.7906" fill="#84BE84" rx="1.8" ry="1.8" style="stroke: #038048; stroke-width: 0.6;"/><text fill="#000000" font-family="sans-serif" font-size="6.6" lengthAdjust="spacingAndGlyphs" textLength="43.8" x="245.508" y="313.442">interact() : void</text><rect fill="#F24D5C" height="3.6" style="stroke: #C82930; stroke-width: 0.6;" width="3.6" x="238.308" y="317.2922"/><text fill="#000000" font-family="sans-serif" font-size="6.6" lengthAdjust="spacingAndGlyphs" textLength="82.8" x="245.508" y="321.7436">writeNumOfAttempts() : void</text><rect fill="#F24D5C" height="3.6" style="stroke: #C82930; stroke-width: 0.6;" width="3.6" x="238.308" y="325.5938"/><text fill="#000000" font-family="sans-serif" font-size="6.6" lengthAdjust="spacingAndGlyphs" textLength="55.2" x="245.508" y="330.0451">addAttempt() : void</text><rect fill="#F24D5C" height="3.6" style="stroke: #C82930; stroke-width: 0.6;" width="3.6" x="238.308" y="333.8953"/><text fill="#000000" font-family="sans-serif" font-size="6.6" lengthAdjust="spacingAndGlyphs" textLength="63" x="245.508" y="338.3467">writeAttempts() : void</text><ellipse cx="240.108" cy="343.9969" fill="#84BE84" rx="1.8" ry="1.8" style="stroke: #038048; stroke-width: 0.6;"/><text fill="#000000" font-family="sans-serif" font-size="6.6" lengthAdjust="spacingAndGlyphs" textLength="55.2" x="245.508" y="346.6482">writeResult() : void</text><!--MD5=[2f151284475d868f7c44c9f582652dcd]
class views.console.ResumeView--><rect codeLine="50" fill="#FEFECE" filter="url(#f1xj12y106hvu9)" height="37.1016" id="views.console.ResumeView" style="stroke: #A80036; stroke-width: 0.8999999999999999;" width="63.6" x="99.108" y="280.2844"/><ellipse cx="108.108" cy="289.8844" fill="#ADD1B2" rx="6.6" ry="6.6" style="stroke: #A80036; stroke-width: 0.6;"/><path d="M109.308,287.7844 Q109.4299,287.4844 109.5705,287.3344 Q109.7111,287.1844 109.8705,287.1844 Q110.1518,287.1844 110.3299,287.3531 Q110.508,287.5219 110.508,287.9156 L110.508,288.8531 Q110.508,289.2469 110.3393,289.4156 Q110.1705,289.5844 109.908,289.5844 Q109.6736,289.5844 109.5236,289.4813 Q109.3736,289.3781 109.308,289.1063 Q109.2799,288.9188 109.1768,288.8156 Q108.9893,288.6188 108.6518,288.5062 Q108.3143,288.3844 107.9768,288.3844 Q107.5549,288.3844 107.1986,288.5531 Q106.8518,288.7219 106.5799,289.0969 Q106.308,289.4719 106.308,289.9875 L106.308,290.5406 Q106.308,291.1594 106.8143,291.5719 Q107.3205,291.9844 108.2205,291.9844 Q108.7549,291.9844 109.1299,291.8625 Q109.3455,291.7969 109.5893,291.5813 Q109.7486,291.4594 109.833,291.4219 Q109.9174,291.3844 110.0205,291.3844 Q110.2174,291.3844 110.358,291.5438 Q110.508,291.6937 110.508,291.9094 Q110.508,292.1156 110.3018,292.3594 Q110.0018,292.7156 109.5236,292.9125 Q108.8955,293.1844 108.1268,293.1844 Q107.2268,293.1844 106.5049,292.8281 Q105.9236,292.5469 105.5111,291.9375 Q105.108,291.3281 105.108,290.6063 L105.108,289.95 Q105.108,289.2 105.4643,288.5438 Q105.8299,287.8875 106.458,287.5406 Q107.0955,287.1844 107.808,287.1844 Q108.2393,287.1844 108.6143,287.3344 Q108.9893,287.4844 109.308,287.7844 Z " fill="#000000"/><text fill="#000000" font-family="sans-serif" font-size="7.2" lengthAdjust="spacingAndGlyphs" textLength="44.4" x="116.508" y="292.8305">ResumeView</text><line style="stroke: #A80036; stroke-width: 0.8999999999999999;" x1="99.708" x2="162.108" y1="299.4844" y2="299.4844"/><line style="stroke: #A80036; stroke-width: 0.8999999999999999;" x1="99.708" x2="162.108" y1="304.2844" y2="304.2844"/><ellipse cx="105.708" cy="310.8844" fill="#84BE84" rx="1.8" ry="1.8" style="stroke: #038048; stroke-width: 0.6;"/><text fill="#000000" font-family="sans-serif" font-size="6.6" lengthAdjust="spacingAndGlyphs" textLength="43.8" x="111.108" y="313.5357">interact() : void</text><!--MD5=[937bc8db9504e57eafe08f070c3ff59c]
class views.console.AttemptView--><rect codeLine="53" fill="#FEFECE" filter="url(#f1xj12y106hvu9)" height="62.0062" id="views.console.AttemptView" style="stroke: #A80036; stroke-width: 0.8999999999999999;" width="168.6" x="263.208" y="407.7844"/><ellipse cx="324.858" cy="417.3844" fill="#ADD1B2" rx="6.6" ry="6.6" style="stroke: #A80036; stroke-width: 0.6;"/><path d="M326.058,415.2844 Q326.1799,414.9844 326.3205,414.8344 Q326.4611,414.6844 326.6205,414.6844 Q326.9018,414.6844 327.0799,414.8531 Q327.258,415.0219 327.258,415.4156 L327.258,416.3531 Q327.258,416.7469 327.0893,416.9156 Q326.9205,417.0844 326.658,417.0844 Q326.4236,417.0844 326.2736,416.9813 Q326.1236,416.8781 326.058,416.6063 Q326.0299,416.4188 325.9268,416.3156 Q325.7393,416.1188 325.4018,416.0062 Q325.0643,415.8844 324.7268,415.8844 Q324.3049,415.8844 323.9486,416.0531 Q323.6018,416.2219 323.3299,416.5969 Q323.058,416.9719 323.058,417.4875 L323.058,418.0406 Q323.058,418.6594 323.5643,419.0719 Q324.0705,419.4844 324.9705,419.4844 Q325.5049,419.4844 325.8799,419.3625 Q326.0955,419.2969 326.3393,419.0813 Q326.4986,418.9594 326.583,418.9219 Q326.6674,418.8844 326.7705,418.8844 Q326.9674,418.8844 327.108,419.0438 Q327.258,419.1937 327.258,419.4094 Q327.258,419.6156 327.0518,419.8594 Q326.7518,420.2156 326.2736,420.4125 Q325.6455,420.6844 324.8768,420.6844 Q323.9768,420.6844 323.2549,420.3281 Q322.6736,420.0469 322.2611,419.4375 Q321.858,418.8281 321.858,418.1063 L321.858,417.45 Q321.858,416.7 322.2143,416.0438 Q322.5799,415.3875 323.208,415.0406 Q323.8455,414.6844 324.558,414.6844 Q324.9893,414.6844 325.3643,414.8344 Q325.7393,414.9844 326.058,415.2844 Z " fill="#000000"/><text fill="#000000" font-family="sans-serif" font-size="7.2" lengthAdjust="spacingAndGlyphs" textLength="40.2" x="337.158" y="420.3305">AttemptView</text><line style="stroke: #A80036; stroke-width: 0.8999999999999999;" x1="263.808" x2="431.208" y1="426.9844" y2="426.9844"/><rect fill="none" height="3.6" style="stroke: #C82930; stroke-width: 0.6;" width="3.6" x="268.008" y="431.7844"/><text fill="#000000" font-family="sans-serif" font-size="6.6" lengthAdjust="spacingAndGlyphs" textLength="37.8" x="275.208" y="436.2357">game : Game</text><line style="stroke: #A80036; stroke-width: 0.8999999999999999;" x1="263.808" x2="431.208" y1="440.0859" y2="440.0859"/><ellipse cx="269.808" cy="446.6859" fill="#84BE84" rx="1.8" ry="1.8" style="stroke: #038048; stroke-width: 0.6;"/><text fill="#000000" font-family="sans-serif" font-size="6.6" lengthAdjust="spacingAndGlyphs" textLength="75" x="275.208" y="449.3373">writeln(int attempts) : void</text><ellipse cx="269.808" cy="454.9875" fill="#84BE84" rx="1.8" ry="1.8" style="stroke: #038048; stroke-width: 0.6;"/><text fill="#000000" font-family="sans-serif" font-size="6.6" lengthAdjust="spacingAndGlyphs" textLength="153" x="275.208" y="457.6389">interact(SecretCombination secretCombination) : void</text><ellipse cx="269.808" cy="463.2891" fill="#84BE84" rx="1.8" ry="1.8" style="stroke: #038048; stroke-width: 0.6;"/><text fill="#000000" font-family="sans-serif" font-size="6.6" lengthAdjust="spacingAndGlyphs" text-decoration="underline" textLength="112.8" x="275.208" y="465.9404">writeColors(Attempt addAttempt) : void</text><!--MD5=[52f795c826f81af7fbdfc10d6f76edf3]
class views.console.SecretCombinationView--><rect codeLine="59" fill="#FEFECE" filter="url(#f1xj12y106hvu9)" height="62.0062" id="views.console.SecretCombinationView" style="stroke: #A80036; stroke-width: 0.8999999999999999;" width="142.8" x="99.108" y="407.7844"/><ellipse cx="128.358" cy="417.3844" fill="#ADD1B2" rx="6.6" ry="6.6" style="stroke: #A80036; stroke-width: 0.6;"/><path d="M129.558,415.2844 Q129.6799,414.9844 129.8205,414.8344 Q129.9611,414.6844 130.1205,414.6844 Q130.4018,414.6844 130.5799,414.8531 Q130.758,415.0219 130.758,415.4156 L130.758,416.3531 Q130.758,416.7469 130.5893,416.9156 Q130.4205,417.0844 130.158,417.0844 Q129.9236,417.0844 129.7736,416.9813 Q129.6236,416.8781 129.558,416.6063 Q129.5299,416.4188 129.4268,416.3156 Q129.2393,416.1188 128.9018,416.0062 Q128.5643,415.8844 128.2268,415.8844 Q127.8049,415.8844 127.4486,416.0531 Q127.1018,416.2219 126.8299,416.5969 Q126.558,416.9719 126.558,417.4875 L126.558,418.0406 Q126.558,418.6594 127.0643,419.0719 Q127.5705,419.4844 128.4705,419.4844 Q129.0049,419.4844 129.3799,419.3625 Q129.5955,419.2969 129.8393,419.0813 Q129.9986,418.9594 130.083,418.9219 Q130.1674,418.8844 130.2705,418.8844 Q130.4674,418.8844 130.608,419.0438 Q130.758,419.1937 130.758,419.4094 Q130.758,419.6156 130.5518,419.8594 Q130.2518,420.2156 129.7736,420.4125 Q129.1455,420.6844 128.3768,420.6844 Q127.4768,420.6844 126.7549,420.3281 Q126.1736,420.0469 125.7611,419.4375 Q125.358,418.8281 125.358,418.1063 L125.358,417.45 Q125.358,416.7 125.7142,416.0438 Q126.0799,415.3875 126.708,415.0406 Q127.3455,414.6844 128.058,414.6844 Q128.4893,414.6844 128.8643,414.8344 Q129.2393,414.9844 129.558,415.2844 Z " fill="#000000"/><text fill="#000000" font-family="sans-serif" font-size="7.2" lengthAdjust="spacingAndGlyphs" textLength="79.2" x="140.658" y="420.3305">SecretCombinationView</text><line style="stroke: #A80036; stroke-width: 0.8999999999999999;" x1="99.708" x2="241.308" y1="426.9844" y2="426.9844"/><rect fill="none" height="3.6" style="stroke: #C82930; stroke-width: 0.6;" width="3.6" x="103.908" y="431.7844"/><text fill="#000000" font-family="sans-serif" font-size="6.6" lengthAdjust="spacingAndGlyphs" textLength="112.8" x="111.108" y="436.2357">secretCombination : SecretCombination</text><line style="stroke: #A80036; stroke-width: 0.8999999999999999;" x1="99.708" x2="241.308" y1="440.0859" y2="440.0859"/><ellipse cx="105.708" cy="446.6859" fill="#84BE84" rx="1.8" ry="1.8" style="stroke: #038048; stroke-width: 0.6;"/><text fill="#000000" font-family="sans-serif" font-size="6.6" lengthAdjust="spacingAndGlyphs" textLength="42" x="111.108" y="449.3373">writeln() : void</text><ellipse cx="105.708" cy="454.9875" fill="#84BE84" rx="1.8" ry="1.8" style="stroke: #038048; stroke-width: 0.6;"/><text fill="#000000" font-family="sans-serif" font-size="6.6" lengthAdjust="spacingAndGlyphs" textLength="127.2" x="111.108" y="457.6389">getSecretCombination() : SecretCombination</text><rect fill="#F24D5C" height="3.6" style="stroke: #C82930; stroke-width: 0.6;" width="3.6" x="103.908" y="461.4891"/><text fill="#000000" font-family="sans-serif" font-size="6.6" lengthAdjust="spacingAndGlyphs" textLength="55.8" x="111.108" y="465.9404">writeColors() : void</text><!--MD5=[e1bf3332b0c1ecb9e7e1b3ba5e35aae1]
class views.graphic.View--><rect codeLine="23" fill="#FEFECE" filter="url(#f1xj12y106hvu9)" height="70.3078" id="views.graphic.View" style="stroke: #A80036; stroke-width: 0.8999999999999999;" width="97.2" x="874.908" y="128.1844"/><ellipse cx="913.158" cy="137.7844" fill="#ADD1B2" rx="6.6" ry="6.6" style="stroke: #A80036; stroke-width: 0.6;"/><path d="M914.358,135.6844 Q914.4799,135.3844 914.6205,135.2344 Q914.7611,135.0844 914.9205,135.0844 Q915.2018,135.0844 915.3799,135.2531 Q915.558,135.4219 915.558,135.8156 L915.558,136.7531 Q915.558,137.1469 915.3893,137.3156 Q915.2205,137.4844 914.958,137.4844 Q914.7236,137.4844 914.5736,137.3813 Q914.4236,137.2781 914.358,137.0063 Q914.3299,136.8188 914.2268,136.7156 Q914.0393,136.5187 913.7018,136.4063 Q913.3643,136.2844 913.0268,136.2844 Q912.6049,136.2844 912.2486,136.4531 Q911.9018,136.6219 911.6299,136.9969 Q911.358,137.3719 911.358,137.8875 L911.358,138.4406 Q911.358,139.0594 911.8643,139.4719 Q912.3705,139.8844 913.2705,139.8844 Q913.8049,139.8844 914.1799,139.7625 Q914.3955,139.6969 914.6393,139.4813 Q914.7986,139.3594 914.883,139.3219 Q914.9674,139.2844 915.0705,139.2844 Q915.2674,139.2844 915.408,139.4438 Q915.558,139.5938 915.558,139.8094 Q915.558,140.0156 915.3518,140.2594 Q915.0518,140.6156 914.5736,140.8125 Q913.9455,141.0844 913.1768,141.0844 Q912.2768,141.0844 911.5549,140.7281 Q910.9736,140.4469 910.5611,139.8375 Q910.158,139.2281 910.158,138.5063 L910.158,137.85 Q910.158,137.1 910.5143,136.4438 Q910.8799,135.7875 911.508,135.4406 Q912.1455,135.0844 912.858,135.0844 Q913.2893,135.0844 913.6643,135.2344 Q914.0393,135.3844 914.358,135.6844 Z " fill="#000000"/><text fill="#000000" font-family="sans-serif" font-size="7.2" lengthAdjust="spacingAndGlyphs" textLength="15.6" x="925.458" y="140.7305">View</text><line style="stroke: #A80036; stroke-width: 0.8999999999999999;" x1="875.508" x2="971.508" y1="147.3844" y2="147.3844"/><rect fill="none" height="3.6" style="stroke: #C82930; stroke-width: 0.6;" width="3.6" x="879.708" y="152.1844"/><text fill="#000000" font-family="sans-serif" font-size="6.6" lengthAdjust="spacingAndGlyphs" textLength="69" x="886.908" y="156.6357">gameView : GameView</text><rect fill="none" height="3.6" style="stroke: #C82930; stroke-width: 0.6;" width="3.6" x="879.708" y="160.4859"/><text fill="#000000" font-family="sans-serif" font-size="6.6" lengthAdjust="spacingAndGlyphs" textLength="81.6" x="886.908" y="164.9373">resumeView : ResumeView</text><rect fill="none" height="3.6" style="stroke: #C82930; stroke-width: 0.6;" width="3.6" x="879.708" y="168.7875"/><text fill="#000000" font-family="sans-serif" font-size="6.6" lengthAdjust="spacingAndGlyphs" textLength="37.8" x="886.908" y="173.2389">game : Game</text><rect fill="none" height="3.6" style="stroke: #C82930; stroke-width: 0.6;" width="3.6" x="879.708" y="177.0891"/><text fill="#000000" font-family="sans-serif" font-size="6.6" lengthAdjust="spacingAndGlyphs" textLength="32.4" x="886.908" y="181.5404">reset : void</text><ellipse cx="881.508" cy="187.1906" fill="none" rx="1.8" ry="1.8" style="stroke: #038048; stroke-width: 0.6;"/><text fill="#000000" font-family="sans-serif" font-size="6.6" lengthAdjust="spacingAndGlyphs" textLength="39" x="886.908" y="189.842">interact : void</text><line style="stroke: #A80036; stroke-width: 0.8999999999999999;" x1="875.508" x2="971.508" y1="193.6922" y2="193.6922"/><!--MD5=[fb0fbda9cd49758390b6a4db09b8b088]
class utils.IO--><rect fill="#FEFECE" filter="url(#f1xj12y106hvu9)" height="28.8" id="utils.IO" style="stroke: #A80036; stroke-width: 0.8999999999999999;" width="26.4" x="105.708" y="536.1844"/><ellipse cx="114.708" cy="545.7844" fill="#ADD1B2" rx="6.6" ry="6.6" style="stroke: #A80036; stroke-width: 0.6;"/><path d="M115.908,543.6844 Q116.0299,543.3844 116.1705,543.2344 Q116.3111,543.0844 116.4705,543.0844 Q116.7518,543.0844 116.9299,543.2531 Q117.108,543.4219 117.108,543.8156 L117.108,544.7531 Q117.108,545.1469 116.9393,545.3156 Q116.7705,545.4844 116.508,545.4844 Q116.2736,545.4844 116.1236,545.3813 Q115.9736,545.2781 115.908,545.0063 Q115.8799,544.8188 115.7767,544.7156 Q115.5892,544.5188 115.2518,544.4063 Q114.9143,544.2844 114.5768,544.2844 Q114.1549,544.2844 113.7986,544.4531 Q113.4518,544.6219 113.1799,544.9969 Q112.908,545.3719 112.908,545.8875 L112.908,546.4406 Q112.908,547.0594 113.4143,547.4719 Q113.9205,547.8844 114.8205,547.8844 Q115.3549,547.8844 115.7299,547.7625 Q115.9455,547.6969 116.1893,547.4812 Q116.3486,547.3594 116.433,547.3219 Q116.5174,547.2844 116.6205,547.2844 Q116.8174,547.2844 116.958,547.4438 Q117.108,547.5938 117.108,547.8094 Q117.108,548.0156 116.9017,548.2594 Q116.6018,548.6156 116.1236,548.8125 Q115.4955,549.0844 114.7268,549.0844 Q113.8268,549.0844 113.1049,548.7281 Q112.5236,548.4469 112.1111,547.8375 Q111.708,547.2281 111.708,546.5063 L111.708,545.85 Q111.708,545.1 112.0643,544.4438 Q112.4299,543.7875 113.058,543.4406 Q113.6955,543.0844 114.408,543.0844 Q114.8393,543.0844 115.2142,543.2344 Q115.5892,543.3844 115.908,543.6844 Z " fill="#000000"/><text fill="#000000" font-family="sans-serif" font-size="7.2" lengthAdjust="spacingAndGlyphs" textLength="7.2" x="123.108" y="548.7305">IO</text><line style="stroke: #A80036; stroke-width: 0.8999999999999999;" x1="106.308" x2="131.508" y1="555.3844" y2="555.3844"/><line style="stroke: #A80036; stroke-width: 0.8999999999999999;" x1="106.308" x2="131.508" y1="560.1844" y2="560.1844"/><!--MD5=[ae8b7cdc49d99fbec8c7e641a97b4a7f]
class utils.YesNoDialog--><rect fill="#FEFECE" filter="url(#f1xj12y106hvu9)" height="28.8" id="utils.YesNoDialog" style="stroke: #A80036; stroke-width: 0.8999999999999999;" width="63" x="21.408" y="536.1844"/><ellipse cx="30.408" cy="545.7844" fill="#ADD1B2" rx="6.6" ry="6.6" style="stroke: #A80036; stroke-width: 0.6;"/><path d="M31.608,543.6844 Q31.7299,543.3844 31.8705,543.2344 Q32.0111,543.0844 32.1705,543.0844 Q32.4518,543.0844 32.6299,543.2531 Q32.808,543.4219 32.808,543.8156 L32.808,544.7531 Q32.808,545.1469 32.6393,545.3156 Q32.4705,545.4844 32.208,545.4844 Q31.9736,545.4844 31.8236,545.3813 Q31.6736,545.2781 31.608,545.0063 Q31.5799,544.8188 31.4768,544.7156 Q31.2893,544.5188 30.9517,544.4063 Q30.6143,544.2844 30.2768,544.2844 Q29.8549,544.2844 29.4986,544.4531 Q29.1518,544.6219 28.8799,544.9969 Q28.608,545.3719 28.608,545.8875 L28.608,546.4406 Q28.608,547.0594 29.1143,547.4719 Q29.6205,547.8844 30.5205,547.8844 Q31.0549,547.8844 31.4299,547.7625 Q31.6455,547.6969 31.8892,547.4812 Q32.0486,547.3594 32.133,547.3219 Q32.2174,547.2844 32.3205,547.2844 Q32.5174,547.2844 32.658,547.4438 Q32.808,547.5938 32.808,547.8094 Q32.808,548.0156 32.6017,548.2594 Q32.3018,548.6156 31.8236,548.8125 Q31.1955,549.0844 30.4268,549.0844 Q29.5268,549.0844 28.8049,548.7281 Q28.2236,548.4469 27.8111,547.8375 Q27.408,547.2281 27.408,546.5063 L27.408,545.85 Q27.408,545.1 27.7643,544.4438 Q28.1299,543.7875 28.758,543.4406 Q29.3955,543.0844 30.108,543.0844 Q30.5393,543.0844 30.9143,543.2344 Q31.2893,543.3844 31.608,543.6844 Z " fill="#000000"/><text fill="#000000" font-family="sans-serif" font-size="7.2" lengthAdjust="spacingAndGlyphs" textLength="43.8" x="38.808" y="548.7305">YesNoDialog</text><line style="stroke: #A80036; stroke-width: 0.8999999999999999;" x1="22.008" x2="83.808" y1="555.3844" y2="555.3844"/><line style="stroke: #A80036; stroke-width: 0.8999999999999999;" x1="22.008" x2="83.808" y1="560.1844" y2="560.1844"/><!--MD5=[7d8092add2854851765564a4bac2e2df]
class MastermindConsole--><rect codeLine="4" fill="#FEFECE" filter="url(#f1xj12y106hvu9)" height="62.0062" id="MastermindConsole" style="stroke: #A80036; stroke-width: 0.8999999999999999;" width="86.4" x="514.308" y="17.7844"/><ellipse cx="523.308" cy="27.3844" fill="#ADD1B2" rx="6.6" ry="6.6" style="stroke: #A80036; stroke-width: 0.6;"/><path d="M524.508,25.2844 Q524.6299,24.9844 524.7705,24.8344 Q524.9111,24.6844 525.0705,24.6844 Q525.3517,24.6844 525.5299,24.8531 Q525.708,25.0219 525.708,25.4156 L525.708,26.3531 Q525.708,26.7469 525.5392,26.9156 Q525.3705,27.0844 525.108,27.0844 Q524.8736,27.0844 524.7236,26.9813 Q524.5736,26.8781 524.508,26.6063 Q524.4799,26.4188 524.3767,26.3156 Q524.1892,26.1188 523.8517,26.0062 Q523.5143,25.8844 523.1768,25.8844 Q522.7549,25.8844 522.3986,26.0531 Q522.0518,26.2219 521.7799,26.5969 Q521.508,26.9719 521.508,27.4875 L521.508,28.0406 Q521.508,28.6594 522.0143,29.0719 Q522.5205,29.4844 523.4205,29.4844 Q523.9549,29.4844 524.3299,29.3625 Q524.5455,29.2969 524.7892,29.0812 Q524.9486,28.9594 525.033,28.9219 Q525.1174,28.8844 525.2205,28.8844 Q525.4174,28.8844 525.558,29.0438 Q525.708,29.1937 525.708,29.4094 Q525.708,29.6156 525.5017,29.8594 Q525.2018,30.2156 524.7236,30.4125 Q524.0955,30.6844 523.3268,30.6844 Q522.4268,30.6844 521.7049,30.3281 Q521.1236,30.0469 520.7111,29.4375 Q520.308,28.8281 520.308,28.1063 L520.308,27.45 Q520.308,26.7 520.6642,26.0438 Q521.0299,25.3875 521.658,25.0406 Q522.2955,24.6844 523.008,24.6844 Q523.4392,24.6844 523.8142,24.8344 Q524.1892,24.9844 524.508,25.2844 Z " fill="#000000"/><text fill="#000000" font-family="sans-serif" font-size="7.2" lengthAdjust="spacingAndGlyphs" textLength="67.2" x="531.708" y="30.3305">MastermindConsole</text><line style="stroke: #A80036; stroke-width: 0.8999999999999999;" x1="514.908" x2="600.108" y1="36.9844" y2="36.9844"/><rect fill="none" height="3.6" style="stroke: #C82930; stroke-width: 0.6;" width="3.6" x="519.108" y="41.7844"/><text fill="#000000" font-family="sans-serif" font-size="6.6" lengthAdjust="spacingAndGlyphs" textLength="37.8" x="526.308" y="46.2357">game : Game</text><rect fill="none" height="3.6" style="stroke: #C82930; stroke-width: 0.6;" width="3.6" x="519.108" y="50.0859"/><text fill="#000000" font-family="sans-serif" font-size="6.6" lengthAdjust="spacingAndGlyphs" textLength="35.4" x="526.308" y="54.5373">view : View</text><text fill="#000000" font-family="sans-serif" font-size="6.6" lengthAdjust="spacingAndGlyphs" text-decoration="underline" textLength="28.8" x="526.308" y="62.8389">main :void</text><line style="stroke: #A80036; stroke-width: 0.8999999999999999;" x1="514.908" x2="600.108" y1="66.6891" y2="66.6891"/><ellipse cx="520.908" cy="73.2891" fill="#84BE84" rx="1.8" ry="1.8" style="stroke: #038048; stroke-width: 0.6;"/><text fill="#000000" font-family="sans-serif" font-size="6.6" lengthAdjust="spacingAndGlyphs" textLength="34.2" x="526.308" y="75.9404">play() : void</text><!--MD5=[90d4580b6b4a24137765d7649efe53e2]
class MastermindGraphic--><rect codeLine="12" fill="#FEFECE" filter="url(#f1xj12y106hvu9)" height="62.0062" id="MastermindGraphic" style="stroke: #A80036; stroke-width: 0.8999999999999999;" width="84" x="807.708" y="17.7844"/><ellipse cx="816.708" cy="27.3844" fill="#ADD1B2" rx="6.6" ry="6.6" style="stroke: #A80036; stroke-width: 0.6;"/><path d="M817.908,25.2844 Q818.0299,24.9844 818.1705,24.8344 Q818.3111,24.6844 818.4705,24.6844 Q818.7518,24.6844 818.9299,24.8531 Q819.108,25.0219 819.108,25.4156 L819.108,26.3531 Q819.108,26.7469 818.9393,26.9156 Q818.7705,27.0844 818.508,27.0844 Q818.2736,27.0844 818.1236,26.9813 Q817.9736,26.8781 817.908,26.6063 Q817.8799,26.4188 817.7768,26.3156 Q817.5893,26.1188 817.2518,26.0062 Q816.9143,25.8844 816.5768,25.8844 Q816.1549,25.8844 815.7986,26.0531 Q815.4518,26.2219 815.1799,26.5969 Q814.908,26.9719 814.908,27.4875 L814.908,28.0406 Q814.908,28.6594 815.4143,29.0719 Q815.9205,29.4844 816.8205,29.4844 Q817.3549,29.4844 817.7299,29.3625 Q817.9455,29.2969 818.1893,29.0812 Q818.3486,28.9594 818.433,28.9219 Q818.5174,28.8844 818.6205,28.8844 Q818.8174,28.8844 818.958,29.0438 Q819.108,29.1937 819.108,29.4094 Q819.108,29.6156 818.9018,29.8594 Q818.6018,30.2156 818.1236,30.4125 Q817.4955,30.6844 816.7268,30.6844 Q815.8268,30.6844 815.1049,30.3281 Q814.5236,30.0469 814.1111,29.4375 Q813.708,28.8281 813.708,28.1063 L813.708,27.45 Q813.708,26.7 814.0643,26.0438 Q814.4299,25.3875 815.058,25.0406 Q815.6955,24.6844 816.408,24.6844 Q816.8393,24.6844 817.2143,24.8344 Q817.5893,24.9844 817.908,25.2844 Z " fill="#000000"/><text fill="#000000" font-family="sans-serif" font-size="7.2" lengthAdjust="spacingAndGlyphs" textLength="64.8" x="825.108" y="30.3305">MastermindGraphic</text><line style="stroke: #A80036; stroke-width: 0.8999999999999999;" x1="808.308" x2="891.108" y1="36.9844" y2="36.9844"/><rect fill="none" height="3.6" style="stroke: #C82930; stroke-width: 0.6;" width="3.6" x="812.508" y="41.7844"/><text fill="#000000" font-family="sans-serif" font-size="6.6" lengthAdjust="spacingAndGlyphs" textLength="37.8" x="819.708" y="46.2357">game : Game</text><rect fill="none" height="3.6" style="stroke: #C82930; stroke-width: 0.6;" width="3.6" x="812.508" y="50.0859"/><text fill="#000000" font-family="sans-serif" font-size="6.6" lengthAdjust="spacingAndGlyphs" textLength="35.4" x="819.708" y="54.5373">view : View</text><text fill="#000000" font-family="sans-serif" font-size="6.6" lengthAdjust="spacingAndGlyphs" text-decoration="underline" textLength="28.8" x="819.708" y="62.8389">main :void</text><line style="stroke: #A80036; stroke-width: 0.8999999999999999;" x1="808.308" x2="891.108" y1="66.6891" y2="66.6891"/><ellipse cx="814.308" cy="73.2891" fill="#84BE84" rx="1.8" ry="1.8" style="stroke: #038048; stroke-width: 0.6;"/><text fill="#000000" font-family="sans-serif" font-size="6.6" lengthAdjust="spacingAndGlyphs" textLength="34.2" x="819.708" y="75.9404">play() : void</text><!--MD5=[167e948f3f9bc053e43e09ed41780785]
link MastermindConsole to models.Game--><path codeLine="10" d="M607.3097,75.1409 C607.3097,75.1409 687.876,116.9764 722.868,135.1444 " fill="none" id="MastermindConsole-models.Game" style="stroke: #A80036; stroke-width: 0.6;"/><polygon fill="#A80036" points="729.942,138.8164,726.2531,134.1999,727.2788,137.4353,724.0434,138.4611,729.942,138.8164" style="stroke: #A80036; stroke-width: 0.6;"/><line style="stroke: #A80036; stroke-width: 0.6;" x1="727.2788" x2="723.021" y1="137.4353" y2="135.2224"/><polygon fill="#A80036" points="600.918,71.8264,603.009,75.6142,607.3097,75.1409,605.2187,71.3531,600.918,71.8264" style="stroke: #A80036; stroke-width: 0.6;"/><!--MD5=[3adc50e97ba87430bf3d7918b0e4eae9]
link MastermindConsole to views.console.View--><path codeLine="11" d="M507.6954,75.298 C507.6954,75.298 430.206,115.7464 395.91,133.6564 " fill="none" id="MastermindConsole-views.console.View" style="stroke: #A80036; stroke-width: 0.6;"/><polygon fill="#A80036" points="388.962,137.2804,394.8597,136.9106,391.6218,135.8928,392.6396,132.6549,388.962,137.2804" style="stroke: #A80036; stroke-width: 0.6;"/><line style="stroke: #A80036; stroke-width: 0.6;" x1="391.6218" x2="395.877" y1="135.8928" y2="133.6714"/><polygon fill="#A80036" points="514.074,71.9584,509.7715,71.502,507.6954,75.298,511.9979,75.7544,514.074,71.9584" style="stroke: #A80036; stroke-width: 0.6;"/><!--MD5=[1bd165a78a652340cfefe5a8d4601f45]
link MastermindGraphic to models.Game--><path codeLine="18" d="M826.0022,85.7074 C826.0022,85.7074 815.898,101.2324 810.93,108.8704 " fill="none" id="MastermindGraphic-models.Game" style="stroke: #A80036; stroke-width: 0.6;"/><polygon fill="#A80036" points="806.586,115.5484,811.5433,112.332,808.2226,113.0341,807.5204,109.7134,806.586,115.5484" style="stroke: #A80036; stroke-width: 0.6;"/><line style="stroke: #A80036; stroke-width: 0.6;" x1="808.2226" x2="810.84" y1="113.0341" y2="109.0084"/><polygon fill="#A80036" points="829.932,79.6744,825.9561,81.381,826.0022,85.7074,829.9781,84.0008,829.932,79.6744" style="stroke: #A80036; stroke-width: 0.6;"/><!--MD5=[494195dc0a0ec0db43de3f5d30349416]
link MastermindGraphic to views.graphic.View--><path codeLine="19" d="M873.4138,85.7074 C873.4138,85.7074 889.152,109.8964 896.616,121.3684 " fill="none" id="MastermindGraphic-views.graphic.View" style="stroke: #A80036; stroke-width: 0.6;"/><polygon fill="#A80036" points="900.936,127.9984,899.9997,122.1637,899.2986,125.4846,895.9777,124.7835,900.936,127.9984" style="stroke: #A80036; stroke-width: 0.6;"/><line style="stroke: #A80036; stroke-width: 0.6;" x1="899.2986" x2="896.679" y1="125.4846" y2="121.4614"/><polygon fill="#A80036" points="869.484,79.6744,869.4379,84.0008,873.4138,85.7074,873.4599,81.381,869.484,79.6744" style="stroke: #A80036; stroke-width: 0.6;"/><!--MD5=[b20b959a516d524aa5a3fb6e7f7f4fd1]
link views.console.View to views.console.GameView--><path codeLine="65" d="M327.1654,205.3621 C327.1654,205.3621 319.968,228.0484 316.41,239.2864 " fill="none" id="views.console.View-views.console.GameView" style="stroke: #A80036; stroke-width: 0.6;"/><polygon fill="#A80036" points="314.028,246.7984,317.9483,242.3767,314.935,243.9388,313.373,240.9255,314.028,246.7984" style="stroke: #A80036; stroke-width: 0.6;"/><line style="stroke: #A80036; stroke-width: 0.6;" x1="314.935" x2="316.383" y1="243.9388" y2="239.3674"/><polygon fill="#A80036" points="329.34,198.4984,325.9648,201.2054,327.1654,205.3621,330.5406,202.6551,329.34,198.4984" style="stroke: #A80036; stroke-width: 0.6;"/><!--MD5=[87f78d92648bcb3054d13c8f8a374791]
link views.console.View to views.console.ResumeView--><path codeLine="66" d="M291.48,195.2284 C251.43,220.9264 195.966,256.5304 161.808,278.4484 " fill="none" id="views.console.View-to-views.console.ResumeView" style="stroke: #A80036; stroke-width: 0.6; stroke-dasharray: 7.0,7.0;"/><polygon fill="#A80036" points="159.186,280.1344,165.0262,279.2331,161.7095,278.5121,162.4305,275.1955,159.186,280.1344" style="stroke: #A80036; stroke-width: 0.6;"/><!--MD5=[6e1613315990f2ca1f3a506a063b27d9]
link views.console.GameView to views.console.AttemptView--><path codeLine="67" d="M318.6171,357.6741 C318.6171,357.6741 329.286,387.3664 333.936,400.3024 " fill="none" id="views.console.GameView-views.console.AttemptView" style="stroke: #A80036; stroke-width: 0.6;"/><polygon fill="#A80036" points="336.588,407.6884,337.018,401.7947,335.5723,404.8655,332.5015,403.4198,336.588,407.6884" style="stroke: #A80036; stroke-width: 0.6;"/><line style="stroke: #A80036; stroke-width: 0.6;" x1="335.5723" x2="333.948" y1="404.8655" y2="400.3444"/><polygon fill="#FFFFFF" points="316.182,350.8984,315.141,355.0979,318.6171,357.6741,319.6581,353.4745,316.182,350.8984" style="stroke: #A80036; stroke-width: 0.6;"/><!--MD5=[dd513d09b716009f5ca464e3278bbb9d]
link views.console.GameView to views.console.SecretCombinationView--><path codeLine="68" d="M245.6552,356.2026 C245.6552,356.2026 216.348,388.1344 203.694,401.9224 " fill="none" id="views.console.GameView-views.console.SecretCombinationView" style="stroke: #A80036; stroke-width: 0.6;"/><polygon fill="#A80036" points="198.408,407.6884,203.8278,405.3335,200.4368,405.4784,200.2919,402.0874,198.408,407.6884" style="stroke: #A80036; stroke-width: 0.6;"/><line style="stroke: #A80036; stroke-width: 0.6;" x1="200.4368" x2="203.679" y1="405.4784" y2="401.9404"/><polygon fill="#A80036" points="250.524,350.8984,246.3215,351.9276,245.6552,356.2026,249.8577,355.1734,250.524,350.8984" style="stroke: #A80036; stroke-width: 0.6;"/><!--MD5=[6582ae606042274016c5ca6600923c57]
link models.Game to models.Attempt--><path codeLine="93" d="M775.908,218.2804 C775.908,218.2804 775.908,260.7964 775.908,276.3904 " fill="none" id="models.Game-models.Attempt" style="stroke: #A80036; stroke-width: 0.6;"/><polygon fill="#A80036" points="775.908,284.3824,778.308,278.9824,775.908,281.3824,773.508,278.9824,775.908,284.3824" style="stroke: #A80036; stroke-width: 0.6;"/><line style="stroke: #A80036; stroke-width: 0.6;" x1="775.908" x2="775.908" y1="281.3824" y2="276.5824"/><polygon fill="#FFFFFF" points="775.908,211.0804,773.508,214.6804,775.908,218.2804,778.308,214.6804,775.908,211.0804" style="stroke: #A80036; stroke-width: 0.6;"/><text fill="#000000" font-family="sans-serif" font-size="7.8" lengthAdjust="spacingAndGlyphs" textLength="15" x="758.9861" y="277.9603">0-10</text><!--MD5=[580af4c6a6e74e4c15178ccc0209456c]
link models.Attempt to models.ProposedCombination--><path codeLine="94" d="M778.6572,320.6767 C778.6572,320.6767 787.734,390.5464 791.1,416.4424 " fill="none" id="models.Attempt-models.ProposedCombination" style="stroke: #A80036; stroke-width: 0.6;"/><polygon fill="#A80036" points="792.102,424.2004,793.7874,418.5365,791.7161,421.2253,789.0273,419.154,792.102,424.2004" style="stroke: #A80036; stroke-width: 0.6;"/><line style="stroke: #A80036; stroke-width: 0.6;" x1="791.7161" x2="791.1" y1="421.2253" y2="416.4634"/><polygon fill="#A80036" points="777.732,313.5364,775.8145,317.4149,778.6572,320.6767,780.5747,316.7981,777.732,313.5364" style="stroke: #A80036; stroke-width: 0.6;"/><!--MD5=[2842eeb7cb413ce4a0cae5dd91421a68]
link models.Attempt to models.SecretCombination--><path codeLine="95" d="M762.6265,319.5393 C762.6265,319.5393 714.96,391.5064 697.632,417.6664 " fill="none" id="models.Attempt-models.SecretCombination" style="stroke: #A80036; stroke-width: 0.6;"/><polygon fill="#A80036" points="693.306,424.2004,698.2867,421.0203,694.961,421.6982,694.2832,418.3724,693.306,424.2004" style="stroke: #A80036; stroke-width: 0.6;"/><line style="stroke: #A80036; stroke-width: 0.6;" x1="694.961" x2="697.611" y1="421.6982" y2="417.6964"/><polygon fill="#A80036" points="766.602,313.5364,762.6133,315.2127,762.6265,319.5393,766.6152,317.863,766.602,313.5364" style="stroke: #A80036; stroke-width: 0.6;"/><!--MD5=[7be7e42121b56f70d24468abf75f28a7]
reverse link models.Combination to models.ProposedCombination--><path codeLine="96" d="M702.828,323.1124 C725.85,352.1704 764.172,400.5424 782.91,424.2004 " fill="none" id="models.Combination-backto-models.ProposedCombination" style="stroke: #A80036; stroke-width: 0.6;"/><polygon fill="none" points="699.402,325.5484,695.238,313.5364,705.984,320.3344,699.402,325.5484" style="stroke: #A80036; stroke-width: 0.6;"/><!--MD5=[15f43ae688a3fcde37d838d03858a71c]
reverse link models.Combination to models.SecretCombination--><path codeLine="97" d="M684.108,325.6384 C684.108,354.9064 684.108,401.2204 684.108,424.2004 " fill="none" id="models.Combination-backto-models.SecretCombination" style="stroke: #A80036; stroke-width: 0.6;"/><polygon fill="none" points="679.908,325.5364,684.108,313.5364,688.308,325.5364,679.908,325.5364" style="stroke: #A80036; stroke-width: 0.6;"/><!--MD5=[c7181f6df9357bb60e274c04665004a0]
link models.Combination to models.Color--><path codeLine="98" d="M666.5665,318.8782 C666.5665,318.8782 630.282,358.9744 610.494,380.8444 " fill="none" id="models.Combination-models.Color" style="stroke: #A80036; stroke-width: 0.6;"/><polygon fill="#A80036" points="605.232,386.6644,610.635,384.2711,607.2451,384.4401,607.0761,381.0502,605.232,386.6644" style="stroke: #A80036; stroke-width: 0.6;"/><line style="stroke: #A80036; stroke-width: 0.6;" x1="607.2451" x2="610.464" y1="384.4401" y2="380.8804"/><polygon fill="#A80036" points="671.394,313.5364,667.1996,314.5982,666.5665,318.8782,670.7609,317.8165,671.394,313.5364" style="stroke: #A80036; stroke-width: 0.6;"/><text fill="#000000" font-family="sans-serif" font-size="7.8" lengthAdjust="spacingAndGlyphs" textLength="4.2" x="604.8497" y="380.2998">4</text><!--MD5=[ad65fdb2078c08fb327fea990917bd9e]
link views.console.View to utils.IO--><path codeLine="102" d="M369.414,198.5584 C422.124,265.6744 520.938,414.6544 442.308,504.9844 C421.86,528.4804 198.138,544.8004 135.264,548.9464 " fill="none" id="views.console.View-to-utils.IO" style="stroke: #A80036; stroke-width: 0.6; stroke-dasharray: 7.0,7.0;"/><polygon fill="#A80036" points="132.216,549.1504,137.7621,551.1901,135.2095,548.9531,137.4465,546.4005,132.216,549.1504" style="stroke: #A80036; stroke-width: 0.6;"/><!--MD5=[aafeeb0939e5a01429693e397808da8c]
link views.console.GameView to utils.IO--><path codeLine="103" d="M233.298,326.1724 C172.158,351.5404 89.454,385.9624 88.908,386.7844 C59.796,430.5124 66.15,457.6384 88.908,504.9844 C90.39,508.0624 92.664,507.2104 94.908,509.7844 C101.094,516.8764 106.59,525.7744 110.76,533.4004 " fill="none" id="views.console.GameView-to-utils.IO" style="stroke: #A80036; stroke-width: 0.6; stroke-dasharray: 7.0,7.0;"/><polygon fill="#A80036" points="112.236,536.1424,111.7947,530.2496,110.8163,533.4996,107.5662,532.5212,112.236,536.1424" style="stroke: #A80036; stroke-width: 0.6;"/><!--MD5=[128e7c3015ad8015371ef984b7b2f22e]
link views.console.ResumeView to utils.IO--><path codeLine="104" d="M106.722,317.5804 C87.714,333.4324 62.688,358.3384 51.708,386.7844 C32.79,435.7924 16.674,465.8404 51.708,504.9844 C58.152,512.1844 86.784,504.5584 94.908,509.7844 C103.386,515.2384 109.278,524.8384 113.106,533.2864 " fill="none" id="views.console.ResumeView-to-utils.IO" style="stroke: #A80036; stroke-width: 0.6; stroke-dasharray: 7.0,7.0;"/><polygon fill="#A80036" points="114.324,536.1004,114.3806,530.1913,113.1319,533.3474,109.9758,532.0987,114.324,536.1004" style="stroke: #A80036; stroke-width: 0.6;"/><!--MD5=[720643f3e108c024c916c5a3d959144e]
link views.console.SecretCombinationView to utils.IO--><path codeLine="105" d="M156.27,469.8244 C146.742,490.2724 134.556,516.4204 126.738,533.1844 " fill="none" id="views.console.SecretCombinationView-to-utils.IO" style="stroke: #A80036; stroke-width: 0.6; stroke-dasharray: 7.0,7.0;"/><polygon fill="#A80036" points="125.43,535.9984,129.8891,532.1207,126.6991,533.28,125.5398,530.0901,125.43,535.9984" style="stroke: #A80036; stroke-width: 0.6;"/><!--MD5=[c7c1302a0008715e5c7ff34117f3079c]
link views.console.AttemptView to utils.IO--><path codeLine="106" d="M308.928,469.7104 C292.296,481.8304 272.214,495.1924 252.708,504.9844 C212.4,525.2164 160.908,539.6164 135.132,546.1084 " fill="none" id="views.console.AttemptView-to-utils.IO" style="stroke: #A80036; stroke-width: 0.6; stroke-dasharray: 7.0,7.0;"/><polygon fill="#A80036" points="132.12,546.8644,137.9416,547.879,135.0299,546.1347,136.7742,543.2231,132.12,546.8644" style="stroke: #A80036; stroke-width: 0.6;"/><!--MD5=[7b8f2b821a3ff6e9cb5a074021699b76]
link views.console.ResumeView to utils.YesNoDialog--><path codeLine="107" d="M99.072,315.7264 C74.016,330.4804 40.908,354.8044 25.908,386.7844 C3.6,434.3464 11.886,454.3564 25.908,504.9844 C28.728,515.1604 34.53,525.3484 40.032,533.4484 " fill="none" id="views.console.ResumeView-to-utils.YesNoDialog" style="stroke: #A80036; stroke-width: 0.6; stroke-dasharray: 7.0,7.0;"/><polygon fill="#A80036" points="41.88,536.1124,40.7712,530.308,40.1688,533.6483,36.8286,533.0459,41.88,536.1124" style="stroke: #A80036; stroke-width: 0.6;"/><!--MD5=[559132af66bfbd165cf7a33b198d3bd7]
@startuml

title Mastermind Controler View

class MastermindConsole{
- game : Game
- view : View
+ play() : void
{static} main :void
}
MastermindConsole *- -> models.Game
MastermindConsole *- -> views.console.View
class MastermindGraphic{
- game : Game
- view : View
+ play() : void
{static} main :void
}
MastermindGraphic *- -> models.Game
MastermindGraphic *- -> views.graphic.View


namespace views.graphic{
class View{
- gameView : GameView
- resumeView : ResumeView
- game : Game
- reset : void
+ interact : void
}
}
namespace views.console{
class View{
- gameView : GameView
- resumeView : ResumeView
- game : Game
- reset : void
+ interact : void
}
class GameView{
- game : Game
- attemptView : AttemptView
- secretCombination : SecretCombination
+ interact() : void
- writeNumOfAttempts() : void
- writeSecretCombination : void
- addAttempt() : void
- writeAttempts() : void
+ writeResult() : void
}
class ResumeView{
+ interact() : void
}
class AttemptView{
- game : Game
+ writeln(int attempts) : void
+ interact(SecretCombination secretCombination) : void
+{static} writeColors(Attempt addAttempt) : void
}
class SecretCombinationView{
- secretCombination : SecretCombination
+ writeln() : void
+ getSecretCombination() : SecretCombination
- writeColors() : void
}
View *- -> GameView
View ..> ResumeView
GameView o- -> AttemptView
GameView *- -> SecretCombinationView
}

namespace models{
Enum Color{
RED
BLUE
YELLOW
ORANGE
PINK
GREEN
+ toChar() : char
+ {static} valueOf(char character) : Color
+ {static} isValidColor(char character) : boolean
}
class Game{
- attemptList : List<Attempt>
+ addAttempt : void
+ getNumOfAttempts : int
+ getAttemptListSize : int
+ isFinished : boolean
+ isWinner : boolean
+ isLooser : boolean
+ resetAttemptList : void
}
Game o- ->"0-10" Attempt
Attempt *- -> ProposedCombination
Attempt *- -> SecretCombination
Combination <|-down- ProposedCombination
Combination <|-down- SecretCombination
Combination *- ->"4" Color
}

namespace utils{
views.console.View ..> IO
views.console.GameView ..> IO
views.console.ResumeView ..> IO
views.console.SecretCombinationView ..> IO
views.console.AttemptView ..> IO
views.console.ResumeView ..> YesNoDialog

}
@enduml

PlantUML version 1.2020.20(Sat Nov 21 11:02:45 CET 2020)
(GPL source distribution)
Java Runtime: OpenJDK Runtime Environment
JVM: OpenJDK 64-Bit Server VM
Default Encoding: Cp1252
Language: es
Country: ES
--></g></svg>